<svg width="33" height="9" viewBox="0 0 33 9" fill="none" xmlns="http://www.w3.org/2000/svg">
<path d="M4.54517 0.124268C6.07014 0.124268 7.30232 1.02705 7.82692 2.23483L6.38734 3.75981H6.28974C5.91155 2.66182 5.33815 2.11283 4.54517 2.11283C3.38618 2.11283 2.581 3.10102 2.581 4.61379C2.581 5.73617 3.14219 6.95615 4.45977 6.95615C5.38695 6.95615 6.04574 6.37056 6.37514 5.06518H6.47274L8.19291 6.39496C7.50972 8.00533 6.32634 8.95692 4.48417 8.95692C1.36102 8.95692 0.421631 6.34616 0.421631 4.71139C0.421631 2.24703 2.1052 0.124268 4.54517 0.124268Z" fill="#F8F5F2"/>
<path d="M8.9858 0.270665H12.9751C14.9393 0.270665 16.0617 1.39305 16.0617 3.11322C16.0617 4.99199 14.9149 5.73617 14.0121 5.95577L16.0495 8.81052H13.4753L11.6576 6.01677H11.0842V8.81052H8.9858V0.270665ZM12.7677 2.25923H11.0842V4.1014H12.7067C13.4753 4.1014 13.8901 3.74761 13.8901 3.12542C13.8901 2.50323 13.4997 2.25923 12.7677 2.25923Z" fill="#F8F5F2"/>
<path d="M23.3763 0.270665V2.25923H19.4968V3.65001H23.3763V5.47998H19.4968V6.83415H23.3763V8.81052H17.3374V0.270665H23.3763Z" fill="#F8F5F2"/>
<path d="M24.724 0.270665H28.2742C30.5555 0.270665 32.2757 1.66144 32.2757 4.63819C32.2757 7.52954 30.6775 8.81052 28.3352 8.81052H24.724V0.270665ZM28.5792 2.25923H26.8834V6.83415H28.6036C29.421 6.83415 30.1163 6.08997 30.1163 4.56499C30.1163 3.19862 29.4698 2.25923 28.5792 2.25923Z" fill="#F8F5F2"/>
</svg>
