<svg width="321" height="274" viewBox="0 0 321 274" fill="none" xmlns="http://www.w3.org/2000/svg">
<path d="M85.2676 17.1411C85.2676 7.6808 92.9367 0.0117188 102.397 0.0117188H246.713C256.173 0.0117188 263.842 7.6808 263.842 17.1411V273.838H85.2676V17.1411Z" fill="url(#paint0_linear_4249_75888)"/>
<g filter="url(#filter0_d_4249_75888)">
<rect x="191.613" y="141.517" width="115.387" height="63.6696" rx="6.65977" fill="#102031" shape-rendering="crispEdges"/>
<path d="M206.051 162.65L208.258 155.858H209.678L211.885 162.65H210.862L208.829 156.452H209.084L207.074 162.65H206.051ZM207.197 161.117V160.192H210.744V161.117H207.197ZM213.731 162.65L211.882 157.556H212.877L214.231 161.414L215.584 157.556H216.58L214.731 162.65H213.731ZM218.582 162.791C218.205 162.791 217.889 162.722 217.634 162.584C217.38 162.442 217.186 162.257 217.054 162.027C216.925 161.794 216.861 161.54 216.861 161.263C216.861 161.005 216.906 160.779 216.998 160.584C217.089 160.389 217.224 160.224 217.403 160.089C217.582 159.95 217.802 159.839 218.063 159.754C218.29 159.688 218.546 159.63 218.832 159.579C219.118 159.529 219.419 159.482 219.733 159.438C220.051 159.394 220.365 159.35 220.676 159.306L220.318 159.504C220.324 159.104 220.239 158.809 220.063 158.617C219.89 158.422 219.592 158.325 219.167 158.325C218.9 158.325 218.655 158.388 218.431 158.513C218.208 158.636 218.052 158.84 217.964 159.127L217.045 158.844C217.17 158.406 217.409 158.059 217.762 157.801C218.117 157.543 218.589 157.414 219.177 157.414C219.632 157.414 220.029 157.493 220.365 157.65C220.705 157.804 220.953 158.05 221.11 158.386C221.192 158.553 221.242 158.729 221.261 158.914C221.28 159.1 221.289 159.299 221.289 159.513V162.65H220.417V161.485L220.587 161.636C220.376 162.026 220.107 162.316 219.78 162.508C219.456 162.697 219.057 162.791 218.582 162.791ZM218.757 161.985C219.037 161.985 219.277 161.936 219.478 161.838C219.68 161.738 219.842 161.61 219.964 161.456C220.087 161.302 220.167 161.142 220.205 160.975C220.258 160.824 220.288 160.655 220.294 160.466C220.304 160.277 220.308 160.126 220.308 160.013L220.629 160.131C220.318 160.178 220.035 160.221 219.78 160.258C219.526 160.296 219.294 160.334 219.087 160.372C218.883 160.406 218.7 160.449 218.54 160.499C218.405 160.546 218.284 160.603 218.177 160.669C218.073 160.735 217.99 160.815 217.927 160.909C217.867 161.004 217.837 161.118 217.837 161.254C217.837 161.386 217.87 161.508 217.936 161.621C218.002 161.732 218.103 161.82 218.238 161.886C218.373 161.952 218.546 161.985 218.757 161.985ZM222.608 156.721V155.764H223.594V156.721H222.608ZM222.608 162.65V157.556H223.594V162.65H222.608ZM225.105 162.65V155.717H226.091V162.65H225.105ZM231.315 162.786C230.963 162.786 230.667 162.73 230.428 162.617C230.189 162.503 229.994 162.356 229.843 162.173C229.696 161.988 229.582 161.787 229.504 161.57C229.425 161.353 229.372 161.14 229.343 160.933C229.315 160.725 229.301 160.543 229.301 160.386V157.556H230.301V160.06C230.301 160.258 230.317 160.463 230.348 160.673C230.383 160.881 230.446 161.074 230.537 161.254C230.631 161.433 230.762 161.577 230.928 161.688C231.098 161.798 231.318 161.853 231.588 161.853C231.765 161.853 231.931 161.824 232.088 161.768C232.246 161.708 232.382 161.614 232.499 161.485C232.618 161.356 232.711 161.186 232.777 160.975C232.846 160.765 232.881 160.508 232.881 160.207L233.494 160.438C233.494 160.9 233.407 161.309 233.234 161.664C233.062 162.016 232.813 162.291 232.489 162.489C232.165 162.687 231.774 162.786 231.315 162.786ZM232.999 162.65V161.178H232.881V157.556H233.876V162.65H232.999ZM237.59 162.791C237.103 162.791 236.694 162.673 236.364 162.437C236.034 162.198 235.784 161.876 235.614 161.471C235.444 161.065 235.359 160.607 235.359 160.098C235.359 159.589 235.442 159.131 235.609 158.726C235.779 158.32 236.027 158.001 236.354 157.768C236.684 157.532 237.09 157.414 237.571 157.414C238.049 157.414 238.461 157.532 238.807 157.768C239.156 158.001 239.425 158.32 239.613 158.726C239.802 159.128 239.896 159.586 239.896 160.098C239.896 160.607 239.802 161.067 239.613 161.475C239.428 161.881 239.162 162.202 238.816 162.437C238.473 162.673 238.065 162.791 237.59 162.791ZM235.194 164.914V157.556H236.071V161.221H236.184V164.914H235.194ZM237.453 161.9C237.768 161.9 238.027 161.82 238.231 161.659C238.439 161.499 238.593 161.283 238.694 161.013C238.797 160.74 238.849 160.435 238.849 160.098C238.849 159.765 238.797 159.463 238.694 159.193C238.593 158.922 238.437 158.707 238.227 158.546C238.016 158.386 237.747 158.306 237.42 158.306C237.112 158.306 236.857 158.381 236.656 158.532C236.458 158.683 236.31 158.894 236.213 159.164C236.118 159.435 236.071 159.746 236.071 160.098C236.071 160.45 236.118 160.762 236.213 161.032C236.307 161.302 236.456 161.515 236.661 161.669C236.865 161.823 237.129 161.9 237.453 161.9ZM243.852 162.65C243.532 162.713 243.217 162.739 242.909 162.73C242.601 162.72 242.326 162.661 242.084 162.551C241.842 162.441 241.659 162.268 241.537 162.032C241.427 161.821 241.367 161.607 241.357 161.39C241.351 161.17 241.348 160.922 241.348 160.645V156.141H242.338V160.598C242.338 160.802 242.34 160.98 242.343 161.131C242.349 161.282 242.382 161.409 242.442 161.513C242.555 161.708 242.735 161.82 242.98 161.848C243.228 161.873 243.519 161.862 243.852 161.815V162.65ZM240.372 158.348V157.556H243.852V158.348H240.372ZM246.908 162.791C246.399 162.791 245.957 162.676 245.583 162.447C245.209 162.217 244.919 161.901 244.715 161.499C244.514 161.093 244.413 160.626 244.413 160.098C244.413 159.567 244.517 159.1 244.724 158.697C244.932 158.292 245.223 157.977 245.597 157.754C245.971 157.528 246.408 157.414 246.908 157.414C247.417 157.414 247.859 157.529 248.233 157.759C248.607 157.988 248.897 158.304 249.101 158.707C249.306 159.109 249.408 159.573 249.408 160.098C249.408 160.629 249.304 161.098 249.096 161.504C248.892 161.906 248.603 162.222 248.229 162.452C247.854 162.678 247.414 162.791 246.908 162.791ZM246.908 161.862C247.395 161.862 247.759 161.699 247.998 161.372C248.24 161.041 248.361 160.617 248.361 160.098C248.361 159.567 248.238 159.142 247.993 158.825C247.751 158.504 247.389 158.344 246.908 158.344C246.578 158.344 246.306 158.419 246.092 158.57C245.878 158.718 245.719 158.924 245.616 159.188C245.512 159.449 245.46 159.752 245.46 160.098C245.46 160.633 245.583 161.06 245.828 161.381C246.073 161.702 246.433 161.862 246.908 161.862Z" fill="#BDD9F1"/>
<path d="M212.389 192.198L207.594 183.833V181.862H209.192C209.832 181.862 210.391 181.773 210.87 181.595C211.368 181.4 211.776 181.125 212.096 180.769C212.433 180.414 212.664 179.988 212.788 179.491H207.594V177.519H212.762C212.655 177.058 212.469 176.649 212.202 176.294C211.954 175.939 211.616 175.664 211.19 175.468C210.782 175.255 210.284 175.148 209.698 175.148H207.594V173.177H219.608V175.148H215.426C215.728 175.486 215.976 175.85 216.172 176.241C216.385 176.631 216.527 177.058 216.598 177.519H219.608V179.491H216.651C216.474 180.805 215.967 181.835 215.133 182.581C214.298 183.309 213.224 183.806 211.909 184.073L217.131 192.198H212.389ZM241.386 173.55V184.845H243.197V188.441H241.465V192.198H237.523V188.441H228.306V185.005L235.312 173.55H241.386ZM237.523 176.64H237.416L232.248 184.845H237.523V176.64ZM247.623 187.323C249.354 187.323 250.367 188.441 250.367 190.146C250.367 192.038 248.875 194.195 247.649 195.341H246.104V195.154C246.877 194.195 247.33 192.97 247.516 192.198C246.051 192.198 245.065 191.239 245.065 189.88C245.065 188.388 246.131 187.323 247.623 187.323ZM259.258 173.23C264.026 173.23 266.53 177.706 266.53 183.114C266.53 187.216 265.065 192.517 259.258 192.517C253.451 192.517 251.985 187.216 251.985 183.114C251.985 177.706 254.489 173.23 259.258 173.23ZM259.258 176.694C256.887 176.694 255.848 179.864 255.848 183.034C255.848 185.671 256.594 188.921 259.258 188.921C261.922 188.921 262.668 185.671 262.668 183.034C262.668 179.864 261.629 176.694 259.258 176.694ZM280.714 173.55V176.773L275.333 180.29L275.36 180.343C275.546 180.316 275.759 180.29 275.946 180.29C279.036 180.29 281.54 182.634 281.54 186.097C281.54 190.573 278.343 192.517 274.427 192.517C271.204 192.517 268.673 190.679 267.475 188.841L269.393 185.857H269.579C270.565 187.429 272.216 189.054 274.427 189.054C276.452 189.054 277.811 187.855 277.811 185.964C277.811 183.939 276.638 182.847 274.401 182.847C273.415 182.847 272.536 183.167 272.03 183.407L270.352 180.903L276.026 177.013H268.993V173.55H280.714ZM288.466 173.55V188.468H295.446V192.198H284.471V173.55H288.466Z" fill="#D8FD87"/>
</g>
<g filter="url(#filter1_d_4249_75888)">
<rect x="12" y="51.854" width="163.719" height="82.6922" rx="8.8797" fill="white" shape-rendering="crispEdges"/>
<path d="M44.3351 79.0698L32.9233 91.2968C32.8024 91.4258 32.6427 91.5121 32.4685 91.5424C32.2943 91.5728 32.1149 91.5457 31.9574 91.4652C31.7999 91.3847 31.6729 91.2551 31.5955 91.0961C31.5181 90.937 31.4946 90.7571 31.5284 90.5835L33.0221 83.1119L27.1502 80.9069C27.024 80.8598 26.9116 80.7821 26.8228 80.6809C26.7341 80.5796 26.6718 80.458 26.6415 80.3268C26.6112 80.1956 26.6139 80.0589 26.6493 79.929C26.6847 79.7991 26.7518 79.68 26.8445 79.5824L38.2563 67.3554C38.3772 67.2264 38.5368 67.1401 38.7111 67.1098C38.8853 67.0794 39.0647 67.1065 39.2222 67.187C39.3797 67.2675 39.5067 67.3971 39.584 67.5561C39.6614 67.7152 39.685 67.8951 39.6512 68.0687L38.1534 75.5485L44.0253 77.7504C44.1505 77.7978 44.2621 77.8754 44.3502 77.9763C44.4382 78.0771 44.5001 78.1981 44.5303 78.3285C44.5605 78.459 44.5582 78.5948 44.5234 78.7241C44.4886 78.8534 44.4226 78.9722 44.331 79.0698H44.3351Z" fill="#5B8FCF"/>
<path d="M56.5555 66.4268V76.2871H54.4426V66.4268H56.5555ZM62.4722 68.2299C64.5006 68.2299 65.4725 69.4694 65.4725 70.9766V76.2871H63.5005V71.6105C63.5005 70.5259 62.9652 70.061 62.1623 70.061C60.9932 70.061 60.3593 71.0189 60.3593 72.3007V76.2871H58.3872V68.3989H59.9931L60.1198 69.4413H60.1621C60.6551 68.6665 61.5003 68.2299 62.4722 68.2299ZM69.7164 68.2299C71.3504 68.2299 72.5055 69.1736 72.914 69.6666L72.1111 71.3006H72.0125C71.3222 70.4555 70.4771 69.9906 69.7587 69.9906C69.0403 69.9906 68.7163 70.3428 68.7163 70.6808C68.7163 71.0471 68.829 71.2161 70.2376 71.5542C72.2097 72.0049 73.2098 72.5684 73.2098 74.0897C73.2098 75.5546 71.8434 76.4561 70.1108 76.4561C68.4064 76.4561 67.195 75.7378 66.6034 75.0616L67.4063 73.3995H67.5049C68.1388 74.0333 69.0121 74.6249 69.97 74.6249C70.8574 74.6249 71.2377 74.3855 71.2377 73.977C71.2377 73.6107 71.0264 73.4417 69.5192 73.1036C67.6458 72.667 66.8147 71.9345 66.8147 70.6386C66.8147 69.3567 67.8711 68.2299 69.7164 68.2299ZM76.8689 66.4268V68.3989H79.0945V70.2301H76.9111V73.7939C76.9111 74.2446 77.0661 74.3996 77.4182 74.3996C77.7563 74.3996 78.1225 74.2305 78.4465 73.9911H78.5451L79.024 75.935C78.6719 76.1603 77.9112 76.4561 77.0661 76.4561C75.8688 76.4561 74.9391 75.8364 74.9391 74.2869V70.2301H73.6432V69.0891C74.6714 68.6524 75.3335 67.6241 75.6716 66.4268H76.8689ZM83.2448 68.2299C85.0056 68.2299 86.4142 69.2441 86.4142 71.2725V76.2871H84.8788L84.6816 75.2447H84.6393C84.2027 76.0195 83.4139 76.4561 82.3292 76.4561C80.6952 76.4561 79.9346 75.5969 79.9346 74.2587C79.9346 73.0332 80.5685 72.174 82.3292 71.7655C84.1745 71.3851 84.4844 71.202 84.4844 70.7935C84.4844 70.3428 84.1182 69.9765 83.2307 69.9765C82.3433 69.9765 81.5686 70.5963 81.0756 71.3851H80.977L80.0332 69.7652C80.6952 68.8778 81.794 68.2299 83.2448 68.2299ZM84.4985 72.5684H84.4703C84.3435 72.836 83.7942 73.005 82.9349 73.2163C82.0757 73.4276 81.8362 73.6953 81.8362 74.0756C81.8362 74.4559 82.1038 74.6954 82.6814 74.6954C83.6533 74.6954 84.4985 74.1319 84.4985 73.4135V72.5684ZM92.0475 68.2299C94.0759 68.2299 95.0479 69.4694 95.0479 70.9766V76.2871H93.0758V71.6105C93.0758 70.5259 92.5406 70.061 91.7376 70.061C90.5685 70.061 89.9346 71.0189 89.9346 72.3007V76.2871H87.9626V68.3989H89.5684L89.6952 69.4413H89.7374C90.2304 68.6665 91.0756 68.2299 92.0475 68.2299ZM99.2636 66.4268V68.3989H101.489V70.2301H99.3059V73.7939C99.3059 74.2446 99.4608 74.3996 99.813 74.3996C100.151 74.3996 100.517 74.2305 100.841 73.9911H100.94L101.419 75.935C101.067 76.1603 100.306 76.4561 99.4608 76.4561C98.2635 76.4561 97.3338 75.8364 97.3338 74.2869V70.2301H96.0379V69.0891C97.0662 68.6524 97.7282 67.6241 98.0663 66.4268H99.2636ZM110.044 66.2578C112.087 66.2578 113.27 67.5255 113.833 68.6947L112.383 70.216H112.284C111.791 68.9905 111.171 68.2299 110.044 68.2299C108.537 68.2299 107.551 69.6103 107.551 71.3992C107.551 72.9769 108.326 74.4559 109.974 74.4559C111.143 74.4559 111.89 73.6812 112.354 72.0894H112.453L114.186 73.4417C113.594 75.1884 112.087 76.4561 109.932 76.4561C106.65 76.4561 105.438 73.7375 105.438 71.4697C105.438 68.6947 107.269 66.2578 110.044 66.2578ZM118.611 68.2299C119.188 68.2299 119.695 68.4693 119.963 68.8496L119.653 70.7231H119.554C119.343 70.4555 118.935 70.2019 118.442 70.2019C117.441 70.2019 117.075 71.0471 117.075 72.2726V76.2871H115.103V68.3989H116.709L116.836 69.4413H116.878C117.202 68.7651 117.723 68.2299 118.611 68.2299ZM123.97 68.2299C126.069 68.2299 127.717 69.8779 127.717 72.3571C127.717 72.4698 127.703 72.6106 127.703 72.7233V72.9205H122.308C122.308 73.8925 123.097 74.6249 124.097 74.6249C125.055 74.6249 125.928 73.9629 126.266 73.3995H126.365L127.267 75.0898C126.971 75.5687 125.802 76.4561 124.097 76.4561C121.829 76.4561 120.252 74.8926 120.252 72.3993C120.252 69.8779 121.858 68.2299 123.97 68.2299ZM123.97 70.061C122.914 70.061 122.449 70.9062 122.336 71.4274H125.604C125.534 70.9062 125.041 70.061 123.97 70.061ZM136.223 65.8352V76.2871H134.688L134.491 75.2447H134.448C134.04 75.935 133.223 76.4561 132.096 76.4561C129.856 76.4561 128.56 74.7095 128.56 72.3853C128.56 70.061 129.955 68.2299 132.152 68.2299C132.955 68.2299 133.786 68.5961 134.223 69.2159H134.251V65.8352H136.223ZM132.378 70.061C131.138 70.061 130.532 71.3147 130.532 72.3853C130.532 73.5826 131.138 74.6249 132.378 74.6249C133.547 74.6249 134.322 73.6812 134.322 72.3853C134.322 71.1034 133.603 70.061 132.378 70.061ZM139.883 68.3989V76.2871H137.91V68.3989H139.883ZM138.897 64.8774C139.699 64.8774 140.164 65.3704 140.164 66.1451C140.164 66.8917 139.699 67.4129 138.897 67.4129C138.051 67.4129 137.601 66.8917 137.601 66.1451C137.601 65.3704 138.051 64.8774 138.897 64.8774ZM144.232 66.4268V68.3989H146.457V70.2301H144.274V73.7939C144.274 74.2446 144.429 74.3996 144.781 74.3996C145.119 74.3996 145.486 74.2305 145.81 73.9911H145.908L146.387 75.935C146.035 76.1603 145.274 76.4561 144.429 76.4561C143.232 76.4561 142.302 75.8364 142.302 74.2869V70.2301H141.006V69.0891C142.034 68.6524 142.696 67.6241 143.035 66.4268H144.232ZM56.5555 82.4268V90.3151H60.2461V92.2871H54.4426V82.4268H56.5555ZM63.2068 84.3989V92.2871H61.2347V84.3989H63.2068ZM62.2207 80.8774C63.0237 80.8774 63.4885 81.3704 63.4885 82.1451C63.4885 82.8917 63.0237 83.4129 62.2207 83.4129C61.3756 83.4129 60.9248 82.8917 60.9248 82.1451C60.9248 81.3704 61.3756 80.8774 62.2207 80.8774ZM68.9788 84.2299C71.0072 84.2299 71.9791 85.4694 71.9791 86.9766V92.2871H70.0071V87.6105C70.0071 86.5259 69.4718 86.061 68.6689 86.061C67.4997 86.061 66.8659 87.0189 66.8659 88.3007V92.2871H64.8938V84.3989H66.4996L66.6264 85.4413H66.6687C67.1617 84.6665 68.0068 84.2299 68.9788 84.2299ZM76.8287 84.2299C78.9275 84.2299 80.5756 85.8779 80.5756 88.3571C80.5756 88.4698 80.5615 88.6106 80.5615 88.7233V88.9205H75.1665C75.1665 89.8925 75.9554 90.6249 76.9555 90.6249C77.9133 90.6249 78.7867 89.9629 79.1247 89.3995H79.2233L80.1249 91.0898C79.829 91.5687 78.6599 92.4561 76.9555 92.4561C74.6876 92.4561 73.11 90.8926 73.11 88.3993C73.11 85.8779 74.7158 84.2299 76.8287 84.2299ZM76.8287 86.061C75.7722 86.061 75.3074 86.9062 75.1947 87.4274H78.4627C78.3923 86.9062 77.8993 86.061 76.8287 86.061Z" fill="#1A2431"/>
<rect x="22.5454" y="102.368" width="121.777" height="6.81586" rx="3.40793" fill="url(#paint1_linear_4249_75888)"/>
<rect x="22.5454" y="113.728" width="82.6991" height="6.81586" rx="3.40793" fill="url(#paint2_linear_4249_75888)"/>
</g>
<ellipse cx="243.671" cy="85.2301" rx="31.8809" ry="31.88" fill="#D8FD87"/>
<path d="M254.757 87.6536C254.76 88.0953 254.626 88.527 254.373 88.8893C254.12 89.2515 253.762 89.5266 253.346 89.6766L246.352 92.2493L243.78 99.2377C243.627 99.6516 243.352 100.009 242.99 100.261C242.628 100.513 242.198 100.649 241.757 100.649C241.315 100.649 240.885 100.513 240.523 100.261C240.161 100.009 239.886 99.6516 239.733 99.2377L237.154 92.2575L230.164 89.6847C229.75 89.5324 229.393 89.2567 229.141 88.895C228.888 88.5332 228.753 88.1028 228.753 87.6618C228.753 87.2207 228.888 86.7903 229.141 86.4285C229.393 86.0668 229.75 85.7911 230.164 85.6388L237.158 83.066L239.731 76.0777C239.883 75.6638 240.159 75.3066 240.521 75.0543C240.882 74.8019 241.313 74.6667 241.754 74.6667C242.195 74.6667 242.625 74.8019 242.987 75.0543C243.349 75.3066 243.624 75.6638 243.777 76.0777L246.35 83.0715L253.338 85.6442C253.753 85.7921 254.112 86.0645 254.366 86.4242C254.62 86.7839 254.757 87.2133 254.757 87.6536ZM247.174 74.6546H249.341V76.8211C249.341 77.1084 249.455 77.3839 249.658 77.587C249.861 77.7902 250.137 77.9043 250.424 77.9043C250.711 77.9043 250.987 77.7902 251.19 77.587C251.393 77.3839 251.507 77.1084 251.507 76.8211V74.6546H253.674C253.961 74.6546 254.237 74.5404 254.44 74.3373C254.643 74.1341 254.757 73.8586 254.757 73.5713C254.757 73.284 254.643 73.0085 254.44 72.8053C254.237 72.6022 253.961 72.488 253.674 72.488H251.507V70.3215C251.507 70.0342 251.393 69.7587 251.19 69.5556C250.987 69.3524 250.711 69.2383 250.424 69.2383C250.137 69.2383 249.861 69.3524 249.658 69.5556C249.455 69.7587 249.341 70.0342 249.341 70.3215V72.488H247.174C246.887 72.488 246.611 72.6022 246.408 72.8053C246.205 73.0085 246.091 73.284 246.091 73.5713C246.091 73.8586 246.205 74.1341 246.408 74.3373C246.611 74.5404 246.887 74.6546 247.174 74.6546ZM259.09 78.9876H258.007V77.9043C258.007 77.617 257.893 77.3415 257.69 77.1384C257.487 76.9352 257.211 76.8211 256.924 76.8211C256.637 76.8211 256.361 76.9352 256.158 77.1384C255.955 77.3415 255.841 77.617 255.841 77.9043V78.9876H254.757C254.47 78.9876 254.194 79.1017 253.991 79.3049C253.788 79.508 253.674 79.7835 253.674 80.0708C253.674 80.3581 253.788 80.6337 253.991 80.8368C254.194 81.04 254.47 81.1541 254.757 81.1541H255.841V82.2374C255.841 82.5246 255.955 82.8002 256.158 83.0033C256.361 83.2065 256.637 83.3206 256.924 83.3206C257.211 83.3206 257.487 83.2065 257.69 83.0033C257.893 82.8002 258.007 82.5246 258.007 82.2374V81.1541H259.09C259.378 81.1541 259.653 81.04 259.856 80.8368C260.06 80.6337 260.174 80.3581 260.174 80.0708C260.174 79.7835 260.06 79.508 259.856 79.3049C259.653 79.1017 259.378 78.9876 259.09 78.9876Z" fill="#4F5E30"/>
<defs>
<filter id="filter0_d_4249_75888" x="178.013" y="129.517" width="142.587" height="90.8697" filterUnits="userSpaceOnUse" color-interpolation-filters="sRGB">
<feFlood flood-opacity="0" result="BackgroundImageFix"/>
<feColorMatrix in="SourceAlpha" type="matrix" values="0 0 0 0 0 0 0 0 0 0 0 0 0 0 0 0 0 0 127 0" result="hardAlpha"/>
<feOffset dy="1.6"/>
<feGaussianBlur stdDeviation="6.8"/>
<feComposite in2="hardAlpha" operator="out"/>
<feColorMatrix type="matrix" values="0 0 0 0 0 0 0 0 0 0 0 0 0 0 0 0 0 0 0.05 0"/>
<feBlend mode="normal" in2="BackgroundImageFix" result="effect1_dropShadow_4249_75888"/>
<feBlend mode="normal" in="SourceGraphic" in2="effect1_dropShadow_4249_75888" result="shape"/>
</filter>
<filter id="filter1_d_4249_75888" x="0.864995" y="42.029" width="185.989" height="104.962" filterUnits="userSpaceOnUse" color-interpolation-filters="sRGB">
<feFlood flood-opacity="0" result="BackgroundImageFix"/>
<feColorMatrix in="SourceAlpha" type="matrix" values="0 0 0 0 0 0 0 0 0 0 0 0 0 0 0 0 0 0 127 0" result="hardAlpha"/>
<feOffset dy="1.31"/>
<feGaussianBlur stdDeviation="5.5675"/>
<feComposite in2="hardAlpha" operator="out"/>
<feColorMatrix type="matrix" values="0 0 0 0 0 0 0 0 0 0 0 0 0 0 0 0 0 0 0.05 0"/>
<feBlend mode="normal" in2="BackgroundImageFix" result="effect1_dropShadow_4249_75888"/>
<feBlend mode="normal" in="SourceGraphic" in2="effect1_dropShadow_4249_75888" result="shape"/>
</filter>
<linearGradient id="paint0_linear_4249_75888" x1="174.555" y1="0.0117187" x2="174.555" y2="273.838" gradientUnits="userSpaceOnUse">
<stop stop-color="white"/>
<stop offset="1" stop-color="#BDD9F1"/>
</linearGradient>
<linearGradient id="paint1_linear_4249_75888" x1="17.8617" y1="99.4144" x2="138.098" y2="146.688" gradientUnits="userSpaceOnUse">
<stop stop-color="#D9D9D9"/>
<stop offset="1" stop-color="#E8E8E8" stop-opacity="0.39"/>
</linearGradient>
<linearGradient id="paint2_linear_4249_75888" x1="19.3647" y1="110.774" x2="107.366" y2="134.271" gradientUnits="userSpaceOnUse">
<stop stop-color="#D9D9D9"/>
<stop offset="1" stop-color="#E8E8E8" stop-opacity="0.39"/>
</linearGradient>
</defs>
</svg>
