<svg width="317" height="528" viewBox="0 0 317 528" fill="none" xmlns="http://www.w3.org/2000/svg">
<path d="M283 2H311C313.209 2 315 3.79086 315 6V34" stroke="#CBFB62" stroke-width="4" stroke-linecap="round"/>
<path d="M283 526H311C313.209 526 315 524.209 315 522V494" stroke="#CBFB62" stroke-width="4" stroke-linecap="round"/>
<path d="M37 2H9C6.79086 2 5 3.79086 5 6V34" stroke="#CBFB62" stroke-width="4" stroke-linecap="round"/>
<path d="M37 526H9C6.79086 526 5 524.209 5 522V494" stroke="#CBFB62" stroke-width="4" stroke-linecap="round"/>
<path d="M313.932 237.546C314.334 242.485 314.624 247.472 314.8 252.503C313.699 252.538 312.833 253.458 312.864 254.56C312.954 257.69 313 260.838 313 264C313 267.162 312.954 270.31 312.864 273.44C312.833 274.542 313.699 275.462 314.8 275.497C314.624 280.528 314.334 285.515 313.932 290.454C312.835 290.362 311.868 291.175 311.772 292.273C311.218 298.598 310.481 304.841 309.569 310.99C309.407 312.081 310.158 313.096 311.248 313.261C310.477 318.237 309.591 323.152 308.596 327.998C307.518 327.773 306.46 328.462 306.231 329.541C304.91 335.763 303.405 341.871 301.727 347.849C301.429 348.911 302.046 350.012 303.106 350.314C301.709 355.16 300.198 359.921 298.578 364.59C297.539 364.225 296.4 364.769 296.031 365.808C293.9 371.806 291.588 377.647 289.105 383.316C288.662 384.325 289.12 385.501 290.127 385.947C288.064 390.557 285.888 395.052 283.604 399.424C282.63 398.91 281.424 399.279 280.905 400.252C277.908 405.875 274.73 411.286 271.384 416.467C270.787 417.392 271.05 418.626 271.972 419.227C269.189 423.452 266.293 427.523 263.291 431.43C262.422 430.756 261.171 430.909 260.491 431.776C256.558 436.789 252.45 441.519 248.182 445.943C247.417 446.735 247.437 447.995 248.224 448.763C244.668 452.364 241.004 455.76 237.239 458.937C236.536 458.093 235.282 457.974 234.432 458.673C229.533 462.702 224.471 466.355 219.264 469.609C218.332 470.192 218.045 471.417 218.62 472.352C214.307 474.961 209.896 477.301 205.397 479.36C204.949 478.358 203.776 477.904 202.769 478.345C197.031 480.861 191.154 482.909 185.162 484.461C184.098 484.737 183.457 485.818 183.723 486.882C178.878 488.047 173.958 488.895 168.974 489.409C168.871 488.318 167.907 487.511 166.813 487.604C163.732 487.867 160.627 488 157.5 488C154.373 488 151.268 487.867 148.187 487.604C147.093 487.511 146.129 488.318 146.026 489.409C141.042 488.895 136.122 488.047 131.277 486.882C131.543 485.818 130.902 484.737 129.838 484.461C123.846 482.909 117.969 480.861 112.231 478.345C111.224 477.904 110.051 478.358 109.603 479.36C105.104 477.301 100.693 474.961 96.3796 472.352C96.9548 471.417 96.6683 470.192 95.7357 469.609C90.5291 466.355 85.4668 462.702 80.5679 458.673C79.718 457.974 78.4641 458.093 77.7609 458.937C73.9964 455.76 70.332 452.364 66.7761 448.763C67.5629 447.995 67.5828 446.735 66.8185 445.943C62.5502 441.519 58.4417 436.789 54.5088 431.776C53.8292 430.909 52.5776 430.756 51.7088 431.43C48.7074 427.523 45.8115 423.452 43.0279 419.227C43.9496 418.626 44.213 417.392 43.6156 416.467C40.2703 411.286 37.0924 405.875 34.0946 400.252C33.5763 399.279 32.3697 398.91 31.3963 399.424C29.1122 395.052 26.936 390.557 24.8733 385.947C25.88 385.501 26.3377 384.325 25.8954 383.316C23.4119 377.647 21.0996 371.806 18.9693 365.808C18.6004 364.769 17.4612 364.225 16.4222 364.59C14.802 359.921 13.2912 355.16 11.8945 350.314C12.9538 350.012 13.5707 348.911 13.2729 347.849C11.5946 341.871 10.0904 335.763 8.76924 329.541C8.5403 328.462 7.48223 327.773 6.40398 327.998C5.40855 323.152 4.52328 318.237 3.75235 313.261C4.84153 313.096 5.59264 312.081 5.43086 310.99C4.51864 304.841 3.78174 298.598 3.22812 292.273C3.132 291.175 2.16537 290.362 1.06757 290.454C0.666259 285.515 0.375933 280.528 0.200258 275.497C1.30147 275.462 2.16749 274.542 2.13573 273.44C2.04554 270.31 2 267.162 2 264C2 260.838 2.04554 257.69 2.13573 254.56C2.16749 253.458 1.30147 252.538 0.200258 252.503C0.375932 247.472 0.666259 242.485 1.06757 237.546C2.16537 237.638 3.132 236.825 3.22812 235.727C3.78174 229.402 4.51864 223.159 5.43086 217.01C5.59264 215.919 4.84153 214.904 3.75235 214.739C4.52328 209.763 5.40854 204.848 6.40398 200.002C7.48222 200.227 8.5403 199.538 8.76924 198.459C10.0904 192.237 11.5946 186.129 13.2728 180.151C13.5707 179.089 12.9538 177.988 11.8945 177.686C13.2912 172.84 14.802 168.079 16.4221 163.41C17.4612 163.775 18.6004 163.231 18.9693 162.192C21.0996 156.194 23.4118 150.353 25.8954 144.684C26.3376 143.675 25.88 142.499 24.8733 142.053C26.936 137.443 29.1122 132.948 31.3963 128.576C32.3697 129.09 33.5763 128.721 34.0946 127.748C37.0924 122.125 40.2703 116.714 43.6156 111.533C44.213 110.608 43.9496 109.374 43.0279 108.773C45.8114 104.548 48.7074 100.477 51.7088 96.5697C52.5776 97.2442 53.8291 97.0906 54.5088 96.2242C58.4417 91.2106 62.5502 86.4812 66.8185 82.0574C67.5828 81.2653 67.5629 80.0051 66.7761 79.2374C70.3319 75.6358 73.9964 72.2402 77.7609 69.0627C78.4641 69.9069 79.718 70.0261 80.5678 69.3272C85.4668 65.2983 90.5291 61.6445 95.7357 58.3912C96.6683 57.8085 96.9548 56.5829 96.3796 55.6477C100.693 53.0394 105.104 50.6987 109.603 48.6403C110.051 49.6418 111.224 50.0958 112.231 49.6546C117.969 47.1395 123.846 45.0912 129.838 43.539C130.902 43.2635 131.543 42.1821 131.277 41.1183C136.122 39.9532 141.042 39.1054 146.026 38.5905C146.129 39.6821 147.093 40.4889 148.187 40.3956C151.268 40.1331 154.373 40 157.5 40C160.627 40 163.732 40.1331 166.813 40.3956C167.907 40.4889 168.871 39.6821 168.974 38.5905C173.958 39.1054 178.878 39.9532 183.723 41.1183C183.457 42.1821 184.098 43.2635 185.162 43.539C191.154 45.0912 197.031 47.1395 202.769 49.6546C203.776 50.0958 204.949 49.6418 205.397 48.6403C209.896 50.6987 214.307 53.0393 218.62 55.6477C218.045 56.5829 218.332 57.8085 219.264 58.3912C224.471 61.6445 229.533 65.2983 234.432 69.3272C235.282 70.026 236.536 69.9069 237.239 69.0627C241.004 72.2402 244.668 75.6358 248.224 79.2374C247.437 80.0051 247.417 81.2652 248.182 82.0574C252.45 86.4812 256.558 91.2105 260.491 96.2242C261.171 97.0906 262.422 97.2442 263.291 96.5697C266.293 100.477 269.189 104.548 271.972 108.773C271.05 109.374 270.787 110.608 271.384 111.533C274.73 116.714 277.908 122.125 280.905 127.748C281.424 128.721 282.63 129.09 283.604 128.576C285.888 132.948 288.064 137.443 290.127 142.053C289.12 142.499 288.662 143.675 289.105 144.684C291.588 150.353 293.9 156.194 296.031 162.192C296.4 163.231 297.539 163.775 298.578 163.41C300.198 168.079 301.709 172.84 303.106 177.686C302.046 177.988 301.429 179.089 301.727 180.151C303.405 186.129 304.91 192.237 306.231 198.459C306.46 199.538 307.518 200.227 308.596 200.002C309.591 204.848 310.477 209.763 311.248 214.739C310.158 214.904 309.407 215.919 309.569 217.01C310.481 223.159 311.218 229.402 311.772 235.727C311.868 236.825 312.835 237.638 313.932 237.546Z" stroke="#CBFB62" stroke-width="4" stroke-linecap="round" stroke-linejoin="round" stroke-dasharray="18 18"/>
</svg>
