<svg width="15" height="15" viewBox="0 0 15 15" fill="none" xmlns="http://www.w3.org/2000/svg">
<path d="M13.8967 4.20701L10.7939 1.10354C10.6907 1.00034 10.5682 0.918472 10.4334 0.862618C10.2986 0.806763 10.1541 0.778015 10.0082 0.778015C9.86222 0.778015 9.71771 0.806763 9.58289 0.862618C9.44807 0.918472 9.32557 1.00034 9.22239 1.10354L0.659196 9.66743C0.555571 9.77023 0.473414 9.89261 0.417501 10.0274C0.361588 10.1623 0.333035 10.3069 0.333502 10.4528V13.5563C0.333502 13.851 0.450565 14.1336 0.658939 14.342C0.867312 14.5504 1.14993 14.6674 1.44461 14.6674H4.54808C4.69405 14.6679 4.83865 14.6393 4.97349 14.5834C5.10832 14.5275 5.2307 14.4454 5.3335 14.3417L13.8967 5.77854C13.9999 5.67536 14.0818 5.55286 14.1376 5.41804C14.1935 5.28322 14.2222 5.13871 14.2222 4.99278C14.2222 4.84684 14.1935 4.70234 14.1376 4.56751C14.0818 4.43269 13.9999 4.31019 13.8967 4.20701ZM11.4446 6.6591L8.34114 3.55632L10.0078 1.88965L13.1113 4.99243L11.4446 6.6591Z" fill="#102031"/>
</svg>
