<svg width="58" height="26" viewBox="0 0 58 26" fill="none" xmlns="http://www.w3.org/2000/svg">
<path d="M32.975 18.5204L41.2035 8.215L41.2025 8.01017V5.13672H28.9207V8.49326H36.5399L28.5239 18.5204H28.52V19.56L28.5181 19.5668L28.52 19.5687V21.9088H41.273V18.5204H32.975Z" fill="#161C20"/>
<path d="M26.9619 10.4072H23.4087C23.3612 10.4072 23.3228 10.4457 23.3228 10.4932V21.8228C23.3228 21.8703 23.3612 21.9088 23.4087 21.9088H26.9619C27.0094 21.9088 27.0478 21.8703 27.0478 21.8228V10.4932C27.0478 10.4457 27.0094 10.4072 26.9619 10.4072Z" fill="#161C20"/>
<path d="M25.2229 9.00254C26.4424 9.00254 27.4311 8.05779 27.4311 6.89239C27.4311 5.72698 26.4424 4.78223 25.2229 4.78223C24.0033 4.78223 23.0146 5.72698 23.0146 6.89239C23.0146 8.05779 24.0033 9.00254 25.2229 9.00254Z" fill="#161C20"/>
<path d="M57.345 21.898H53.279C53.2819 17.156 51.6984 15.8497 49.4236 15.8497H46.7229V21.898H42.8511V5.12305H50.1304C54.0824 5.12305 56.4045 7.20905 56.4045 10.3714C56.4045 12.1878 56.0028 14.1096 54.1828 14.925C56.194 15.9077 57.2001 18.0642 57.344 21.899L57.345 21.898ZM49.8957 12.696C51.3083 12.696 52.2681 12.0091 52.2681 10.4989C52.2681 8.98877 51.2881 8.17427 49.8745 8.17427H46.638V12.6951H49.8957V12.696Z" fill="#161C20"/>
<path d="M13.7037 25.7943C13.1506 25.7943 12.4003 25.615 11.6902 24.8632C10.5178 23.6218 10.1848 21.8811 9.9168 20.4816C9.88043 20.2908 9.84502 20.1048 9.80865 19.9284C9.71391 19.4734 9.62969 19.0166 9.55504 18.5578C9.24688 19.164 8.94542 19.7346 8.65353 20.2638C6.56435 24.0439 5.4207 24.8921 4.57852 25.2237C4.08661 25.4174 3.57269 25.4502 3.09801 25.3239C2.51518 25.2237 1.99935 24.8902 1.64429 24.3765C1.41556 24.0439 1.25765 23.6459 1.16195 23.1582C1.04424 22.5567 1.03562 21.8984 1.02892 21.3173L1.02701 21.1736L0.833691 7.75514C0.819335 6.7701 1.60122 5.96048 2.57834 5.94699C2.58696 5.94699 2.59557 5.94699 2.60418 5.94699C3.56982 5.94699 4.36032 6.72866 4.37372 7.70406L4.55268 20.2291C4.87903 19.7202 5.26854 19.0638 5.72599 18.2195C6.85241 16.1434 8.13386 13.3974 9.33397 10.4857C9.66319 9.68859 10.5121 9.2433 11.3495 9.42836C12.1869 9.61341 12.7716 10.3768 12.7381 11.2394C12.7304 11.4457 12.719 11.6635 12.7075 11.8823C12.6903 12.2177 12.673 12.5647 12.6682 12.8538C12.6577 13.5179 12.6702 14.1907 12.7065 14.8538C12.785 16.3024 12.9754 17.7646 13.2731 19.1987C13.3133 19.3925 13.3525 19.5958 13.3927 19.806C13.498 20.3534 13.6176 20.979 13.7889 21.5023C13.9258 21.2276 14.0865 20.8671 14.2722 20.3949L14.2875 20.3553C16.036 15.915 16.9892 11.7473 17.9979 7.33491C18.3903 5.62025 18.7951 3.84776 19.2631 1.9837C19.5023 1.02854 20.4651 0.449277 21.4135 0.691199C22.3619 0.932158 22.9361 1.90178 22.6969 2.85694C22.2385 4.68437 21.8375 6.43951 21.4489 8.13586C20.4086 12.6832 19.4267 16.979 17.5797 21.671L17.5644 21.7095C16.8523 23.5196 15.8944 25.4155 14.1909 25.748C14.0569 25.774 13.8913 25.7952 13.7028 25.7952L13.7037 25.7943Z" fill="#161C20"/>
</svg>
