<svg width="14" height="12" viewBox="0 0 14 12" fill="none" xmlns="http://www.w3.org/2000/svg">
<path d="M13.75 5.4375V6.5625C13.75 6.71168 13.6907 6.85476 13.5852 6.96025C13.4798 7.06574 13.3367 7.125 13.1875 7.125H0.8125C0.663316 7.125 0.520242 7.06574 0.414753 6.96025C0.309263 6.85476 0.25 6.71168 0.25 6.5625V5.4375C0.25 5.28832 0.309263 5.14524 0.414753 5.03975C0.520242 4.93426 0.663316 4.875 0.8125 4.875H13.1875C13.3367 4.875 13.4798 4.93426 13.5852 5.03975C13.6907 5.14524 13.75 5.28832 13.75 5.4375ZM13.1875 9.375H0.8125C0.663316 9.375 0.520242 9.43426 0.414753 9.53975C0.309263 9.64524 0.25 9.78832 0.25 9.9375V11.0625C0.25 11.2117 0.309263 11.3548 0.414753 11.4602C0.520242 11.5657 0.663316 11.625 0.8125 11.625H13.1875C13.3367 11.625 13.4798 11.5657 13.5852 11.4602C13.6907 11.3548 13.75 11.2117 13.75 11.0625V9.9375C13.75 9.78832 13.6907 9.64524 13.5852 9.53975C13.4798 9.43426 13.3367 9.375 13.1875 9.375ZM13.1875 0.375H0.8125C0.663316 0.375 0.520242 0.434263 0.414753 0.539753C0.309263 0.645242 0.25 0.788316 0.25 0.9375V2.0625C0.25 2.21168 0.309263 2.35476 0.414753 2.46025C0.520242 2.56574 0.663316 2.625 0.8125 2.625H13.1875C13.3367 2.625 13.4798 2.56574 13.5852 2.46025C13.6907 2.35476 13.75 2.21168 13.75 2.0625V0.9375C13.75 0.788316 13.6907 0.645242 13.5852 0.539753C13.4798 0.434263 13.3367 0.375 13.1875 0.375Z" fill="#161C20"/>
</svg>
