<svg width="21" height="21" viewBox="0 0 21 21" fill="none" xmlns="http://www.w3.org/2000/svg">
<path opacity="0.5" d="M18.0194 3.57118L10.6334 2.26882C9.95349 2.14894 9.30516 2.6029 9.18528 3.28277L7.4488 13.1308C7.32892 13.8107 7.78288 14.459 8.46275 14.5789L15.8488 15.8813C16.5287 16.0012 17.177 15.5472 17.2969 14.8673L19.0334 5.01925C19.1532 4.33938 18.6993 3.69106 18.0194 3.57118Z" fill="#A198AC"/>
<path d="M10.7499 4.78722L3.36382 6.08958C2.68395 6.20946 2.22999 6.85778 2.34987 7.53765L4.08635 17.3857C4.20623 18.0656 4.85456 18.5196 5.53442 18.3997L12.9205 17.0973C13.6004 16.9774 14.0543 16.3291 13.9344 15.6492L12.198 5.80117C12.0781 5.1213 11.4297 4.66734 10.7499 4.78722Z" fill="#A198AC"/>
</svg>
