<svg width="16" height="16" viewBox="0 0 16 16" fill="none" xmlns="http://www.w3.org/2000/svg">
<circle cx="8" cy="8" r="8" fill="#5B8FCF"/>
<path d="M4.39816 8.169L4.22395 7.98969C4.17165 8.04051 4.12981 8.10124 4.10114 8.16856C4.07246 8.2359 4.05762 8.30832 4.05762 8.38162C4.05762 8.45493 4.07246 8.52735 4.10114 8.59469C4.12978 8.66194 4.17156 8.72261 4.22378 8.77339C4.22383 8.77345 4.22389 8.7735 4.22395 8.77356L5.86839 10.3773L5.86854 10.3775C6.08937 10.5925 6.38733 10.7121 6.69673 10.7121C7.00613 10.7121 7.30409 10.5925 7.52492 10.3775L7.52507 10.3773L11.7762 6.23152L11.6018 6.05233L11.7764 6.23131L11.7762 6.23146C11.8284 6.18066 11.8702 6.11999 11.8988 6.05274C11.9274 5.98546 11.9422 5.91309 11.9422 5.83986C11.9422 5.76662 11.9274 5.69426 11.8988 5.62697C11.8702 5.5597 11.8284 5.499 11.7762 5.4482L11.6018 5.62738L11.7768 5.44877C11.7247 5.39776 11.6631 5.3576 11.5958 5.33032C11.5284 5.30303 11.4564 5.28906 11.3839 5.28906C11.3113 5.28906 11.2393 5.30303 11.172 5.33032C11.1047 5.35755 11.0433 5.3976 10.9913 5.44847C10.9912 5.44857 10.9911 5.44867 10.991 5.44877L6.73969 9.59531L6.73933 9.59566L5.00904 7.99038L4.83413 8.16899L5.00877 7.99012L5.00896 7.9903C4.95689 7.93933 4.89535 7.89921 4.82804 7.87193C4.7607 7.84465 4.68871 7.83068 4.61614 7.83068C4.54358 7.83068 4.47158 7.84465 4.40424 7.87193C4.33689 7.89922 4.27533 7.93937 4.22324 7.99038L4.39816 8.169ZM4.39816 8.169C4.42674 8.141 4.46072 8.11879 4.49812 8.10364C4.53553 8.08848 4.57564 8.08068 4.61614 8.08068C4.65665 8.08068 4.69675 8.08848 4.73416 8.10364C4.77157 8.11879 4.80554 8.141 4.83412 8.169L6.47829 9.77428L4.39816 8.59425C4.36946 8.56637 4.34669 8.53323 4.33115 8.49674C4.31562 8.46026 4.30762 8.42113 4.30762 8.38162C4.30762 8.34211 4.31562 8.30299 4.33115 8.26651C4.34669 8.23002 4.36946 8.19688 4.39816 8.169Z" fill="white" stroke="white" stroke-width="0.5"/>
</svg>
