<svg width="21" height="21" viewBox="0 0 21 21" fill="none" xmlns="http://www.w3.org/2000/svg">
<circle cx="10.5" cy="10.5" r="10.5" fill="#9AD550"/>
<path d="M8.9685 12.1151L8.96814 12.1154C8.95591 12.1274 8.94104 12.1372 8.92422 12.144C8.9074 12.1508 8.88915 12.1544 8.87058 12.1544C8.85201 12.1544 8.83376 12.1508 8.81694 12.144C8.80012 12.1372 8.78525 12.1274 8.77302 12.1154L8.77275 12.1151L6.71781 10.1088L6.5429 10.2874L6.71755 10.1085L6.71763 10.1086C6.65844 10.0507 6.58845 10.0051 6.51182 9.97401C6.43513 9.94294 6.35311 9.92702 6.27042 9.92702C6.18773 9.92702 6.10571 9.94294 6.02902 9.97401C5.95247 10.005 5.88254 10.0506 5.82338 10.1085C5.76407 10.1662 5.71666 10.2351 5.68417 10.3114C5.65161 10.3878 5.63477 10.47 5.63477 10.5532C5.63477 10.6364 5.65161 10.7186 5.68417 10.795C5.7167 10.8714 5.76418 10.9404 5.82358 10.9981C5.82363 10.9982 5.82368 10.9982 5.82373 10.9983L7.87937 13.0031L7.87952 13.0032C8.14372 13.2604 8.50047 13.4038 8.87116 13.4038C9.24184 13.4038 9.59859 13.2604 9.86279 13.0032L9.86294 13.0031L15.1769 7.82077C15.177 7.82071 15.177 7.82064 15.1771 7.82058C15.2364 7.76285 15.2838 7.69394 15.3162 7.61764C15.3487 7.54123 15.3655 7.4591 15.3655 7.37599C15.3655 7.29289 15.3487 7.21076 15.3162 7.13435C15.2838 7.0581 15.2364 6.98923 15.1772 6.93152C15.118 6.87364 15.0481 6.82802 14.9715 6.79699C14.8948 6.76592 14.8128 6.75 14.7301 6.75C14.6474 6.75 14.5654 6.76592 14.4887 6.79699C14.4121 6.82801 14.3422 6.87359 14.283 6.93143C14.2829 6.93155 14.2828 6.93166 14.2827 6.93178L8.9685 12.1151Z" fill="white" stroke="white" stroke-width="0.5"/>
</svg>
