<svg width="15" height="16" viewBox="0 0 15 16" fill="none" xmlns="http://www.w3.org/2000/svg">
<path d="M6.3832 2.376C6.81771 1.74395 7.73345 1.69596 8.23165 2.27913L9.07164 3.2624C9.31215 3.54393 9.67203 3.69458 10.0414 3.66833L11.3313 3.57667C12.0964 3.5223 12.7049 4.20834 12.5596 4.96145L12.3145 6.23124C12.2444 6.59481 12.351 6.9701 12.6018 7.24251L13.4777 8.19389C13.9973 8.75815 13.8403 9.66161 13.1609 10.0175L12.0153 10.6177C11.6873 10.7895 11.4604 11.1069 11.4038 11.4728L11.2061 12.7508C11.0889 13.5088 10.2846 13.9494 9.58275 13.6401L8.39932 13.1187C8.06047 12.9694 7.67087 12.9898 7.34948 13.1737L6.22704 13.816C5.56132 14.1969 4.71544 13.8428 4.51961 13.1012L4.18943 11.8509C4.09489 11.4929 3.83601 11.201 3.49185 11.0644L2.28986 10.5873C1.57697 10.3043 1.32641 9.4222 1.7841 8.80673L2.5558 7.769C2.77675 7.47187 2.84354 7.08749 2.73577 6.73324L2.35936 5.49602C2.13611 4.76223 2.66955 4.01635 3.43611 3.99044L4.72859 3.94676C5.09866 3.93426 5.44082 3.74682 5.65058 3.44169L6.3832 2.376Z" fill="#292F1E"/>
<path d="M9.43029 5.76171C9.40372 5.73776 9.37269 5.71928 9.33898 5.70733C9.30526 5.69538 9.26952 5.69019 9.2338 5.69207C9.19807 5.69394 9.16307 5.70283 9.13079 5.71824C9.09851 5.73365 9.06958 5.75527 9.04566 5.78187L5.43953 9.78688C5.3912 9.84056 5.36617 9.91124 5.36995 9.98337C5.37373 10.0555 5.40601 10.1232 5.45969 10.1715C5.51337 10.2198 5.58405 10.2449 5.65618 10.2411C5.72831 10.2373 5.79599 10.205 5.84432 10.1514L9.45045 6.14635C9.4744 6.11978 9.49288 6.08875 9.50483 6.05503C9.51678 6.02131 9.52197 5.98557 9.52009 5.94985C9.51822 5.91413 9.50933 5.87912 9.49392 5.84684C9.47851 5.81456 9.45689 5.78563 9.43029 5.76171Z" fill="#CBFB62"/>
<circle cx="6.1575" cy="6.80729" r="0.952698" transform="rotate(-3 6.1575 6.80729)" stroke="#CBFB62" stroke-width="0.544399"/>
<circle cx="8.73172" cy="9.12565" r="0.952698" transform="rotate(-3 8.73172 9.12565)" stroke="#CBFB62" stroke-width="0.544399"/>
</svg>
