<svg width="40" height="39" viewBox="0 0 40 39" fill="none" xmlns="http://www.w3.org/2000/svg">
<path d="M30.3291 22.4506V22.4415C30.3276 22.4347 30.3254 22.4281 30.3228 22.4216C30.2627 22.2577 30.1929 22.0976 30.1138 21.942L26.352 13.3923C26.3158 13.3099 26.2645 13.2351 26.2009 13.1715C25.932 12.9025 25.6127 12.6892 25.2613 12.5436C24.9099 12.398 24.5333 12.3231 24.153 12.3231C23.7727 12.3231 23.3961 12.398 23.0447 12.5436C22.6933 12.6892 22.3741 12.9025 22.1052 13.1715C21.9699 13.3069 21.8937 13.4904 21.8934 13.6819V15.9442H18.9976V13.6819C18.9977 13.5868 18.9791 13.4926 18.9427 13.4047C18.9064 13.3168 18.8531 13.237 18.7859 13.1697C18.517 12.9007 18.1977 12.6873 17.8464 12.5418C17.495 12.3962 17.1184 12.3213 16.738 12.3213C16.3577 12.3213 15.9811 12.3962 15.6297 12.5418C15.2784 12.6873 14.9591 12.9007 14.6902 13.1697C14.6265 13.2332 14.5753 13.3081 14.5391 13.3905L10.7809 21.942C10.7018 22.0976 10.632 22.2577 10.5719 22.4216C10.5694 22.4278 10.5672 22.4342 10.5655 22.4406C10.5655 22.4406 10.5655 22.4479 10.5655 22.4506C10.1918 23.5305 10.2587 24.7142 10.7517 25.7451C11.2446 26.776 12.124 27.5712 13.1992 27.9582C14.2744 28.3452 15.4589 28.2929 16.4958 27.8127C17.5327 27.3324 18.3386 26.4629 18.7388 25.3925C18.9151 24.9117 19.0039 24.4033 19.0013 23.8912V17.3921H21.897V23.8921C21.8944 24.4042 21.9832 24.9126 22.1595 25.3934C22.5597 26.4638 23.3656 27.3333 24.4025 27.8136C25.4394 28.2938 26.6238 28.3461 27.6991 27.9591C28.7743 27.5721 29.6537 26.7769 30.1466 25.746C30.6396 24.7151 30.7065 23.5314 30.3327 22.4515L30.3291 22.4506ZM17.3751 24.8939C17.1078 25.6072 16.5702 26.1864 15.8787 26.5061C15.1873 26.8258 14.3977 26.8601 13.6812 26.6017C12.9646 26.3433 12.3787 25.8129 12.0504 25.1255C11.7222 24.4381 11.678 23.649 11.9275 22.9293L12.0913 22.5556C12.3923 21.9833 12.8762 21.5283 13.4659 21.263C14.0555 20.9977 14.717 20.9374 15.3449 21.0917C15.9728 21.2459 16.5311 21.6059 16.9306 22.1143C17.3302 22.6226 17.5482 23.2501 17.5498 23.8967V23.9075C17.5497 24.2452 17.4906 24.5802 17.3751 24.8975V24.8939ZM27.2325 26.6286C26.7947 26.7889 26.3248 26.8411 25.8626 26.7808C25.4004 26.7205 24.9595 26.5495 24.5776 26.2824C24.1956 26.0153 23.8837 25.6599 23.6685 25.2464C23.4532 24.833 23.341 24.3737 23.3413 23.9075V23.8976C23.3437 23.2513 23.5622 22.6244 23.9621 22.1166C24.3619 21.6089 24.9202 21.2495 25.5479 21.0957C26.1756 20.9419 26.8367 21.0025 27.426 21.2679C28.0153 21.5332 28.4989 21.9881 28.7998 22.5601L28.9636 22.9338C29.2211 23.6535 29.1836 24.4458 28.8593 25.1379C28.535 25.83 27.9502 26.3659 27.2325 26.6286Z" fill="#838F97"/>
</svg>
