<svg width="40" height="39" viewBox="0 0 40 39" fill="none" xmlns="http://www.w3.org/2000/svg">
<path d="M25.5131 16.8109V16.3069C25.5131 14.0373 22.0898 12.3252 17.5498 12.3252C13.0098 12.3252 9.58643 14.0373 9.58643 16.3069V19.9266C9.58643 21.817 11.9619 23.3191 15.378 23.7689V24.2702C15.378 26.5398 18.8013 28.2519 23.3413 28.2519C27.8813 28.2519 31.3046 26.5398 31.3046 24.2702V20.6505C31.3046 18.7773 29.0043 17.2733 25.5131 16.8109ZM13.9301 21.9961C12.1573 21.5011 11.0343 20.6858 11.0343 19.9266V18.6533C11.7727 19.1764 12.7618 19.5981 13.9301 19.8813V21.9961ZM21.1695 19.8813C22.3377 19.5981 23.3268 19.1764 24.0652 18.6533V19.9266C24.0652 20.6858 22.9422 21.5011 21.1695 21.9961V19.8813ZM19.7216 26.3398C17.9488 25.8448 16.8258 25.0295 16.8258 24.2702V23.8929C17.0638 23.9019 17.3045 23.9082 17.5498 23.9082C17.9009 23.9082 18.2439 23.8965 18.5805 23.8766C18.9545 24.0105 19.3354 24.124 19.7216 24.2168V26.3398ZM19.7216 22.302C19.0025 22.4082 18.2766 22.4612 17.5498 22.4604C16.8229 22.4612 16.097 22.4082 15.378 22.302V20.1492C16.0981 20.243 16.8236 20.2896 17.5498 20.2885C18.276 20.2896 19.0015 20.243 19.7216 20.1492V22.302ZM25.5131 26.6456C24.0729 26.8568 22.6097 26.8568 21.1695 26.6456V24.4874C21.8894 24.5842 22.6149 24.6325 23.3413 24.6322C24.0675 24.6332 24.793 24.5867 25.5131 24.4928V26.6456ZM29.8568 24.2702C29.8568 25.0295 28.7338 25.8448 26.961 26.3398V24.225C28.1293 23.9417 29.1183 23.52 29.8568 22.997V24.2702Z" fill="#838F97"/>
</svg>
