<svg width="36" height="36" viewBox="0 0 36 36" fill="none" xmlns="http://www.w3.org/2000/svg">
<rect opacity="0.72" width="36" height="36" rx="18" fill="white"/>
<path d="M24.875 11.125H11.125C10.7935 11.125 10.4755 11.2567 10.2411 11.4911C10.0067 11.7255 9.875 12.0435 9.875 12.375V23.625C9.875 23.9565 10.0067 24.2745 10.2411 24.5089C10.4755 24.7433 10.7935 24.875 11.125 24.875H24.875C25.2065 24.875 25.5245 24.7433 25.7589 24.5089C25.9933 24.2745 26.125 23.9565 26.125 23.625V12.375C26.125 12.0435 25.9933 11.7255 25.7589 11.4911C25.5245 11.2567 25.2065 11.125 24.875 11.125ZM24.875 12.375V20.4023L22.8383 18.3664C22.7222 18.2503 22.5844 18.1582 22.4327 18.0954C22.281 18.0325 22.1185 18.0002 21.9543 18.0002C21.7901 18.0002 21.6276 18.0325 21.4759 18.0954C21.3242 18.1582 21.1864 18.2503 21.0703 18.3664L19.5078 19.9289L16.0703 16.4914C15.8359 16.2572 15.5181 16.1256 15.1867 16.1256C14.8553 16.1256 14.5375 16.2572 14.3031 16.4914L11.125 19.6695V12.375H24.875ZM11.125 21.4375L15.1875 17.375L21.4375 23.625H11.125V21.4375ZM24.875 23.625H23.2055L20.393 20.8125L21.9555 19.25L24.875 22.1703V23.625ZM19.25 15.8125C19.25 15.6271 19.305 15.4458 19.408 15.2917C19.511 15.1375 19.6574 15.0173 19.8287 14.9464C20 14.8754 20.1885 14.8568 20.3704 14.893C20.5523 14.9292 20.7193 15.0185 20.8504 15.1496C20.9815 15.2807 21.0708 15.4477 21.107 15.6296C21.1432 15.8115 21.1246 16 21.0536 16.1713C20.9827 16.3426 20.8625 16.489 20.7083 16.592C20.5542 16.695 20.3729 16.75 20.1875 16.75C19.9389 16.75 19.7004 16.6512 19.5246 16.4754C19.3488 16.2996 19.25 16.0611 19.25 15.8125Z" fill="#161C20"/>
</svg>
