<svg width="40" height="39" viewBox="0 0 40 39" fill="none" xmlns="http://www.w3.org/2000/svg">
<path d="M20.4452 25.707C20.4452 25.707 20.4452 25.707 20.4398 25.707C20.2077 25.8616 19.9659 26.0009 19.7158 26.1242V29.6996C19.7158 29.8916 19.7921 30.0757 19.9279 30.2115C20.0636 30.3472 20.2478 30.4235 20.4398 30.4235C20.6318 30.4235 20.8159 30.3472 20.9517 30.2115C21.0874 30.0757 21.1637 29.8916 21.1637 29.6996V26.1242C20.9136 26.0009 20.6718 25.8616 20.4398 25.707H20.4452Z" fill="#838F97"/>
<path d="M26.7888 14.37C26.2651 13.1196 25.3835 12.0519 24.2549 11.301C23.1263 10.55 21.8009 10.1494 20.4453 10.1494C19.0896 10.1494 17.7642 10.55 16.6356 11.301C15.507 12.0519 14.6254 13.1196 14.1017 14.37C12.9748 14.8921 12.0198 15.7242 11.3484 16.769C10.677 17.8138 10.3168 19.0282 10.3101 20.2701C10.3001 23.7831 13.1479 26.7132 16.6572 26.8037C17.7188 26.8314 18.771 26.598 19.7213 26.1241V22.9071L15.7776 20.9362C15.6058 20.8502 15.4751 20.6996 15.4144 20.5173C15.3536 20.335 15.3678 20.1361 15.4537 19.9643C15.5396 19.7924 15.6903 19.6618 15.8725 19.601C16.0548 19.5402 16.2537 19.5544 16.4256 19.6403L19.7213 21.2891V16.6685C19.7213 16.4765 19.7976 16.2924 19.9334 16.1566C20.0691 16.0209 20.2533 15.9446 20.4453 15.9446C20.6373 15.9446 20.8214 16.0209 20.9572 16.1566C21.0929 16.2924 21.1692 16.4765 21.1692 16.6685V19.1173L24.4649 17.4685C24.55 17.4259 24.6427 17.4006 24.7375 17.3938C24.8324 17.3871 24.9277 17.3991 25.018 17.4292C25.1082 17.4593 25.1917 17.5068 25.2635 17.5692C25.3354 17.6315 25.3943 17.7074 25.4368 17.7924C25.4794 17.8775 25.5047 17.9702 25.5115 18.0651C25.5182 18.16 25.5062 18.2552 25.4761 18.3455C25.446 18.4357 25.3985 18.5192 25.3362 18.591C25.2738 18.6629 25.198 18.7218 25.1129 18.7643L21.1692 20.7353V26.1241C22.0685 26.5726 23.06 26.8053 24.065 26.8037H24.2333C27.7426 26.7132 30.5904 23.7849 30.5804 20.2719C30.5744 19.0296 30.2145 17.8147 29.543 16.7695C28.8715 15.7243 27.9162 14.892 26.7888 14.37Z" fill="#838F97"/>
</svg>
