<svg width="40" height="39" viewBox="0 0 40 39" fill="none" xmlns="http://www.w3.org/2000/svg">
<path d="M29.1329 19.162V27.528C29.1329 27.912 28.9803 28.2803 28.7088 28.5518C28.4373 28.8233 28.069 28.9759 27.685 28.9759H13.2062C12.8222 28.9759 12.4539 28.8233 12.1824 28.5518C11.9108 28.2803 11.7583 27.912 11.7583 27.528V19.162C11.7583 18.9616 11.7998 18.7634 11.8804 18.5799C11.9609 18.3964 12.0786 18.2316 12.2261 18.096L19.4656 11.2656L19.4755 11.2556C19.742 11.0132 20.0894 10.8789 20.4497 10.8789C20.8099 10.8789 21.1573 11.0132 21.4238 11.2556C21.4269 11.2592 21.4302 11.2625 21.4338 11.2656L28.6732 18.096C28.8192 18.2323 28.9354 18.3974 29.0145 18.5809C29.0937 18.7643 29.1339 18.9622 29.1329 19.162Z" fill="#838F97"/>
</svg>
