<svg width="32" height="33" viewBox="0 0 32 33" fill="none" xmlns="http://www.w3.org/2000/svg">
<circle opacity="0.1" cx="16" cy="16.8442" r="16" fill="#999999"/>
<g opacity="0.72">
<path d="M22.4944 15.173C22.4944 19.1508 16.5965 22.3705 16.3454 22.5034C16.2792 22.539 16.2052 22.5577 16.13 22.5577C16.0548 22.5577 15.9808 22.539 15.9146 22.5034C15.6635 22.3705 9.76562 19.1508 9.76562 15.173C9.76668 14.239 10.1382 13.3435 10.7987 12.683C11.4592 12.0225 12.3547 11.651 13.2888 11.6499C14.4622 11.6499 15.4896 12.1545 16.13 13.0074C16.7704 12.1545 17.7978 11.6499 18.9712 11.6499C19.9053 11.651 20.8008 12.0225 21.4613 12.683C22.1218 13.3435 22.4933 14.239 22.4944 15.173Z" fill="#999999"/>
</g>
</svg>
