<svg width="40" height="39" viewBox="0 0 40 39" fill="none" xmlns="http://www.w3.org/2000/svg">
<path d="M27.6847 10.877H15.3777C14.6097 10.877 13.8731 11.182 13.3301 11.7251C12.787 12.2682 12.4819 13.0047 12.4819 13.7727V28.9755C12.4819 29.1675 12.5582 29.3516 12.694 29.4874C12.8297 29.6231 13.0139 29.6994 13.2059 29.6994H26.2368C26.4288 29.6994 26.6129 29.6231 26.7487 29.4874C26.8845 29.3516 26.9607 29.1675 26.9607 28.9755C26.9607 28.7835 26.8845 28.5993 26.7487 28.4636C26.6129 28.3278 26.4288 28.2515 26.2368 28.2515H13.9298C13.9298 27.8675 14.0824 27.4993 14.3539 27.2277C14.6254 26.9562 14.9937 26.8037 15.3777 26.8037H27.6847C27.8767 26.8037 28.0608 26.7274 28.1966 26.5916C28.3324 26.4558 28.4086 26.2717 28.4086 26.0797V11.6009C28.4086 11.4089 28.3324 11.2248 28.1966 11.089C28.0608 10.9532 27.8767 10.877 27.6847 10.877ZM25.5129 19.5642L23.1954 17.8268C23.1327 17.7798 23.0565 17.7544 22.9782 17.7544C22.8999 17.7544 22.8236 17.7798 22.761 17.8268L20.4453 19.5642V12.3248H25.5129V19.5642Z" fill="#838F97"/>
</svg>
