<svg width="20" height="21" viewBox="0 0 20 21" fill="none" xmlns="http://www.w3.org/2000/svg">
<path d="M15.625 18H11.7609C12.41 17.4204 13.0222 16.8007 13.5938 16.1445C15.7383 13.6781 16.875 11.0781 16.875 8.625C16.875 6.80164 16.1507 5.05295 14.8614 3.76364C13.572 2.47433 11.8234 1.75 10 1.75C8.17664 1.75 6.42795 2.47433 5.13864 3.76364C3.84933 5.05295 3.125 6.80164 3.125 8.625C3.125 11.0781 4.25859 13.6781 6.40625 16.1445C6.97782 16.8007 7.58996 17.4204 8.23906 18H4.375C4.20924 18 4.05027 18.0658 3.93306 18.1831C3.81585 18.3003 3.75 18.4592 3.75 18.625C3.75 18.7908 3.81585 18.9497 3.93306 19.0669C4.05027 19.1842 4.20924 19.25 4.375 19.25H15.625C15.7908 19.25 15.9497 19.1842 16.0669 19.0669C16.1842 18.9497 16.25 18.7908 16.25 18.625C16.25 18.4592 16.1842 18.3003 16.0669 18.1831C15.9497 18.0658 15.7908 18 15.625 18ZM4.375 8.625C4.375 7.13316 4.96763 5.70242 6.02252 4.64752C7.07742 3.59263 8.50816 3 10 3C11.4918 3 12.9226 3.59263 13.9775 4.64752C15.0324 5.70242 15.625 7.13316 15.625 8.625C15.625 13.0961 11.2914 16.8281 10 17.8438C8.70859 16.8281 4.375 13.0961 4.375 8.625ZM13.125 8.625C13.125 8.00693 12.9417 7.40275 12.5983 6.88884C12.255 6.37494 11.7669 5.9744 11.1959 5.73788C10.6249 5.50135 9.99653 5.43947 9.39034 5.56005C8.78415 5.68062 8.22733 5.97825 7.79029 6.41529C7.35325 6.85233 7.05562 7.40915 6.93505 8.01534C6.81447 8.62153 6.87635 9.24987 7.11288 9.82089C7.3494 10.3919 7.74994 10.88 8.26384 11.2233C8.77775 11.5667 9.38193 11.75 10 11.75C10.8288 11.75 11.6237 11.4208 12.2097 10.8347C12.7958 10.2487 13.125 9.4538 13.125 8.625ZM8.125 8.625C8.125 8.25416 8.23497 7.89165 8.44099 7.58331C8.64702 7.27496 8.93986 7.03464 9.28247 6.89273C9.62508 6.75081 10.0021 6.71368 10.3658 6.78603C10.7295 6.85837 11.0636 7.03695 11.3258 7.29917C11.588 7.5614 11.7666 7.89549 11.839 8.25921C11.9113 8.62292 11.8742 8.99992 11.7323 9.34253C11.5904 9.68514 11.35 9.97798 11.0417 10.184C10.7334 10.39 10.3708 10.5 10 10.5C9.50272 10.5 9.02581 10.3025 8.67417 9.95083C8.32254 9.59919 8.125 9.12228 8.125 8.625Z" fill="#161C20"/>
</svg>
