<svg width="22" height="22" viewBox="0 0 22 22" fill="none" xmlns="http://www.w3.org/2000/svg">
<path d="M9.28125 9.28125C9.28125 9.00775 9.3899 8.74544 9.5833 8.55205C9.77669 8.35865 10.039 8.25 10.3125 8.25H15.125C15.3985 8.25 15.6608 8.35865 15.8542 8.55205C16.0476 8.74544 16.1562 9.00775 16.1562 9.28125C16.1562 9.55475 16.0476 9.81706 15.8542 10.0105C15.6608 10.2039 15.3985 10.3125 15.125 10.3125H10.3125C10.039 10.3125 9.77669 10.2039 9.5833 10.0105C9.3899 9.81706 9.28125 9.55475 9.28125 9.28125ZM15.125 11.6875H10.3125C10.039 11.6875 9.77669 11.7962 9.5833 11.9895C9.3899 12.1829 9.28125 12.4452 9.28125 12.7188C9.28125 12.9923 9.3899 13.2546 9.5833 13.448C9.77669 13.6413 10.039 13.75 10.3125 13.75H15.125C15.3985 13.75 15.6608 13.6413 15.8542 13.448C16.0476 13.2546 16.1562 12.9923 16.1562 12.7188C16.1562 12.4452 16.0476 12.1829 15.8542 11.9895C15.6608 11.7962 15.3985 11.6875 15.125 11.6875ZM19.5938 4.125V17.875C19.5938 18.3308 19.4127 18.768 19.0903 19.0903C18.768 19.4127 18.3308 19.5938 17.875 19.5938H4.125C3.66916 19.5938 3.23199 19.4127 2.90966 19.0903C2.58733 18.768 2.40625 18.3308 2.40625 17.875V4.125C2.40625 3.66916 2.58733 3.23199 2.90966 2.90966C3.23199 2.58733 3.66916 2.40625 4.125 2.40625H17.875C18.3308 2.40625 18.768 2.58733 19.0903 2.90966C19.4127 3.23199 19.5938 3.66916 19.5938 4.125ZM4.46875 17.5312H5.84375V4.46875H4.46875V17.5312ZM17.5312 4.46875H7.90625V17.5312H17.5312V4.46875Z" fill="#102031"/>
</svg>
