<svg width="16" height="15" viewBox="0 0 16 15" fill="none" xmlns="http://www.w3.org/2000/svg">
<path d="M15.2372 14.4687C15.1878 14.5542 15.1168 14.6253 15.0312 14.6746C14.9457 14.724 14.8487 14.75 14.7499 14.75H1.24991C1.15122 14.7499 1.05429 14.7238 0.968864 14.6744C0.883433 14.625 0.812506 14.554 0.763205 14.4685C0.713903 14.383 0.687963 14.286 0.687988 14.1873C0.688014 14.0886 0.714004 13.9917 0.763349 13.9062C1.83421 12.0549 3.48444 10.7274 5.4103 10.0981C4.45769 9.53098 3.71756 8.66686 3.30359 7.63841C2.88962 6.60996 2.82469 5.47405 3.11878 4.40513C3.41286 3.33621 4.0497 2.39338 4.93149 1.72142C5.81328 1.04947 6.89127 0.685547 7.99991 0.685547C9.10855 0.685547 10.1865 1.04947 11.0683 1.72142C11.9501 2.39338 12.587 3.33621 12.881 4.40513C13.1751 5.47405 13.1102 6.60996 12.6962 7.63841C12.2823 8.66686 11.5421 9.53098 10.5895 10.0981C12.5154 10.7274 14.1656 12.0549 15.2365 13.9062C15.286 13.9917 15.3121 14.0886 15.3122 14.1874C15.3123 14.2861 15.2864 14.3831 15.2372 14.4687Z" fill="#161C20"/>
</svg>
