<svg width="36" height="36" viewBox="0 0 36 36" fill="none" xmlns="http://www.w3.org/2000/svg">
<g id="Group 48097634">
<rect id="Rectangle 41992" opacity="0.72" width="36" height="36" rx="18" fill="white"/>
<g id="ArrowClockwise">
<g id="Vector">
<mask id="path-2-outside-1_4832_74469" maskUnits="userSpaceOnUse" x="9.49959" y="9.5007" width="18" height="17" fill="black">
<rect fill="white" x="9.49959" y="9.5007" width="18" height="17"/>
<path d="M26.75 12.375V16.125C26.75 16.2908 26.6842 16.4497 26.5669 16.5669C26.4497 16.6842 26.2908 16.75 26.125 16.75H22.375C22.2092 16.75 22.0503 16.6842 21.9331 16.5669C21.8158 16.4497 21.75 16.2908 21.75 16.125C21.75 15.9592 21.8158 15.8003 21.9331 15.6831C22.0503 15.5658 22.2092 15.5 22.375 15.5H24.5156L22.4383 13.5969L22.4188 13.5781C21.5501 12.7098 20.4447 12.1166 19.2409 11.8728C18.0371 11.6289 16.7881 11.7452 15.6499 12.2071C14.5118 12.669 13.535 13.456 12.8415 14.4698C12.1481 15.4836 11.7687 16.6793 11.7508 17.9075C11.733 19.1356 12.0774 20.3418 12.741 21.3754C13.4047 22.4089 14.3582 23.224 15.4824 23.7188C16.6066 24.2136 17.8517 24.3662 19.0622 24.1575C20.2726 23.9488 21.3947 23.388 22.2883 22.5453C22.4088 22.4314 22.5696 22.3699 22.7354 22.3745C22.9012 22.3792 23.0583 22.4494 23.1723 22.5699C23.2862 22.6904 23.3477 22.8512 23.343 23.017C23.3384 23.1828 23.2681 23.3399 23.1477 23.4539C21.7582 24.7717 19.915 25.5043 18 25.5H17.8969C16.6685 25.4832 15.4632 25.1649 14.3866 24.5731C13.3101 23.9813 12.3955 23.1342 11.723 22.1061C11.0506 21.0781 10.641 19.9006 10.5302 18.6772C10.4194 17.4537 10.6108 16.2218 11.0876 15.0897C11.5644 13.9575 12.312 12.9598 13.2647 12.1843C14.2174 11.4087 15.346 10.8791 16.5513 10.6419C17.7566 10.4046 19.0018 10.4671 20.1773 10.8238C21.3528 11.1805 22.4227 11.8205 23.293 12.6875L25.5 14.7031V12.375C25.5 12.2092 25.5658 12.0503 25.6831 11.9331C25.8003 11.8158 25.9592 11.75 26.125 11.75C26.2908 11.75 26.4497 11.8158 26.5669 11.9331C26.6842 12.0503 26.75 12.2092 26.75 12.375Z"/>
</mask>
<path d="M26.75 12.375V16.125C26.75 16.2908 26.6842 16.4497 26.5669 16.5669C26.4497 16.6842 26.2908 16.75 26.125 16.75H22.375C22.2092 16.75 22.0503 16.6842 21.9331 16.5669C21.8158 16.4497 21.75 16.2908 21.75 16.125C21.75 15.9592 21.8158 15.8003 21.9331 15.6831C22.0503 15.5658 22.2092 15.5 22.375 15.5H24.5156L22.4383 13.5969L22.4188 13.5781C21.5501 12.7098 20.4447 12.1166 19.2409 11.8728C18.0371 11.6289 16.7881 11.7452 15.6499 12.2071C14.5118 12.669 13.535 13.456 12.8415 14.4698C12.1481 15.4836 11.7687 16.6793 11.7508 17.9075C11.733 19.1356 12.0774 20.3418 12.741 21.3754C13.4047 22.4089 14.3582 23.224 15.4824 23.7188C16.6066 24.2136 17.8517 24.3662 19.0622 24.1575C20.2726 23.9488 21.3947 23.388 22.2883 22.5453C22.4088 22.4314 22.5696 22.3699 22.7354 22.3745C22.9012 22.3792 23.0583 22.4494 23.1723 22.5699C23.2862 22.6904 23.3477 22.8512 23.343 23.017C23.3384 23.1828 23.2681 23.3399 23.1477 23.4539C21.7582 24.7717 19.915 25.5043 18 25.5H17.8969C16.6685 25.4832 15.4632 25.1649 14.3866 24.5731C13.3101 23.9813 12.3955 23.1342 11.723 22.1061C11.0506 21.0781 10.641 19.9006 10.5302 18.6772C10.4194 17.4537 10.6108 16.2218 11.0876 15.0897C11.5644 13.9575 12.312 12.9598 13.2647 12.1843C14.2174 11.4087 15.346 10.8791 16.5513 10.6419C17.7566 10.4046 19.0018 10.4671 20.1773 10.8238C21.3528 11.1805 22.4227 11.8205 23.293 12.6875L25.5 14.7031V12.375C25.5 12.2092 25.5658 12.0503 25.6831 11.9331C25.8003 11.8158 25.9592 11.75 26.125 11.75C26.2908 11.75 26.4497 11.8158 26.5669 11.9331C26.6842 12.0503 26.75 12.2092 26.75 12.375Z" fill="#161C20"/>
<path d="M26.75 12.375V16.125C26.75 16.2908 26.6842 16.4497 26.5669 16.5669C26.4497 16.6842 26.2908 16.75 26.125 16.75H22.375C22.2092 16.75 22.0503 16.6842 21.9331 16.5669C21.8158 16.4497 21.75 16.2908 21.75 16.125C21.75 15.9592 21.8158 15.8003 21.9331 15.6831C22.0503 15.5658 22.2092 15.5 22.375 15.5H24.5156L22.4383 13.5969L22.4188 13.5781C21.5501 12.7098 20.4447 12.1166 19.2409 11.8728C18.0371 11.6289 16.7881 11.7452 15.6499 12.2071C14.5118 12.669 13.535 13.456 12.8415 14.4698C12.1481 15.4836 11.7687 16.6793 11.7508 17.9075C11.733 19.1356 12.0774 20.3418 12.741 21.3754C13.4047 22.4089 14.3582 23.224 15.4824 23.7188C16.6066 24.2136 17.8517 24.3662 19.0622 24.1575C20.2726 23.9488 21.3947 23.388 22.2883 22.5453C22.4088 22.4314 22.5696 22.3699 22.7354 22.3745C22.9012 22.3792 23.0583 22.4494 23.1723 22.5699C23.2862 22.6904 23.3477 22.8512 23.343 23.017C23.3384 23.1828 23.2681 23.3399 23.1477 23.4539C21.7582 24.7717 19.915 25.5043 18 25.5H17.8969C16.6685 25.4832 15.4632 25.1649 14.3866 24.5731C13.3101 23.9813 12.3955 23.1342 11.723 22.1061C11.0506 21.0781 10.641 19.9006 10.5302 18.6772C10.4194 17.4537 10.6108 16.2218 11.0876 15.0897C11.5644 13.9575 12.312 12.9598 13.2647 12.1843C14.2174 11.4087 15.346 10.8791 16.5513 10.6419C17.7566 10.4046 19.0018 10.4671 20.1773 10.8238C21.3528 11.1805 22.4227 11.8205 23.293 12.6875L25.5 14.7031V12.375C25.5 12.2092 25.5658 12.0503 25.6831 11.9331C25.8003 11.8158 25.9592 11.75 26.125 11.75C26.2908 11.75 26.4497 11.8158 26.5669 11.9331C26.6842 12.0503 26.75 12.2092 26.75 12.375Z" stroke="#161C20" stroke-width="0.4" mask="url(#path-2-outside-1_4832_74469)"/>
</g>
</g>
</g>
</svg>
