<svg width="20" height="20" viewBox="0 0 20 20" fill="none" xmlns="http://www.w3.org/2000/svg">
<g clip-path="url(#clip0_4789_75833)">
<path d="M19.5728 15.5948L17.6978 16.2198C17.5551 16.2675 17.4 16.2622 17.2609 16.2048C17.1219 16.1474 17.0082 16.0417 16.9407 15.9073L14.6134 11.2518H8.12511C7.95935 11.2518 7.80038 11.1859 7.68317 11.0687C7.56596 10.9515 7.50011 10.7925 7.50011 10.6268V8.30959C6.49338 8.61013 5.62843 9.26291 5.06333 10.1486C4.49823 11.0343 4.27074 12.0938 4.42242 13.1334C4.57411 14.1731 5.09485 15.1234 5.88946 15.8107C6.68407 16.498 7.69948 16.8764 8.75011 16.8768C10.7743 16.8768 12.6634 15.4666 13.1446 13.5955C13.1652 13.516 13.2011 13.4413 13.2505 13.3757C13.2999 13.3101 13.3617 13.2549 13.4325 13.2132C13.5032 13.1715 13.5815 13.1441 13.6628 13.1326C13.7441 13.1211 13.8268 13.1258 13.9064 13.1463C13.9859 13.1668 14.0606 13.2028 14.1262 13.2522C14.1918 13.3016 14.247 13.3634 14.2887 13.4341C14.3304 13.5049 14.3578 13.5831 14.3693 13.6644C14.3808 13.7457 14.3761 13.8285 14.3556 13.908C13.7259 16.3533 11.3689 18.1268 8.75011 18.1268C7.36775 18.126 6.03409 17.6162 5.00369 16.6946C3.97328 15.7731 3.31828 14.5045 3.16371 13.1308C3.00913 11.7571 3.36581 10.3746 4.16565 9.24711C4.9655 8.11965 6.1525 7.3262 7.50011 7.01819V5.53381C6.99657 5.38369 6.56389 5.05733 6.28119 4.61442C5.9985 4.1715 5.88467 3.64163 5.96053 3.12169C6.03639 2.60175 6.29686 2.12649 6.69432 1.78281C7.09178 1.43913 7.59967 1.25 8.12511 1.25C8.65055 1.25 9.15844 1.43913 9.5559 1.78281C9.95336 2.12649 10.2138 2.60175 10.2897 3.12169C10.3656 3.64163 10.2517 4.1715 9.96903 4.61442C9.68633 5.05733 9.25365 5.38369 8.75011 5.53381V6.87678H13.1251C13.2909 6.87678 13.4498 6.94263 13.5671 7.05984C13.6843 7.17705 13.7501 7.33602 13.7501 7.50178C13.7501 7.66754 13.6843 7.82651 13.5671 7.94372C13.4498 8.06093 13.2909 8.12678 13.1251 8.12678H8.75011V10.0018H15.0001C15.1161 10.0018 15.2298 10.0342 15.3284 10.0952C15.4271 10.1561 15.5068 10.2434 15.5587 10.3471L17.8165 14.8627L19.1775 14.4088C19.3347 14.3564 19.5064 14.3686 19.6546 14.4427C19.8029 14.5169 19.9157 14.6469 19.9681 14.8041C20.0205 14.9614 20.0083 15.133 19.9342 15.2813C19.86 15.4296 19.73 15.5423 19.5728 15.5948Z" fill="black"/>
</g>
<defs>
<clipPath id="clip0_4789_75833">
<rect width="20" height="20" fill="white"/>
</clipPath>
</defs>
</svg>
