<svg width="35" height="35" viewBox="0 0 35 35" fill="none" xmlns="http://www.w3.org/2000/svg">
<circle cx="17.5" cy="17.5" r="17.5" fill="#CBFB62"/>
<path d="M26.545 25.1412L22.6192 21.2137C23.7963 19.6798 24.3458 17.7556 24.1564 15.8314C23.9669 13.9072 23.0526 12.1271 21.5989 10.8522C20.1453 9.57731 18.2611 8.90311 16.3286 8.96636C14.3961 9.0296 12.5601 9.82556 11.1929 11.1928C9.82568 12.5599 9.02973 14.396 8.96648 16.3285C8.90324 18.261 9.57743 20.1451 10.8523 21.5988C12.1272 23.0525 13.9073 23.9668 15.8315 24.1562C17.7557 24.3457 19.6799 23.7961 21.2138 22.619L25.143 26.549C25.2353 26.6413 25.3448 26.7145 25.4654 26.7644C25.5859 26.8144 25.7152 26.8401 25.8457 26.8401C25.9762 26.8401 26.1054 26.8144 26.2259 26.7644C26.3465 26.7145 26.4561 26.6413 26.5483 26.549C26.6406 26.4568 26.7138 26.3472 26.7637 26.2266C26.8137 26.1061 26.8394 25.9769 26.8394 25.8464C26.8394 25.7159 26.8137 25.5866 26.7637 25.4661C26.7138 25.3455 26.6406 25.236 26.5483 25.1437L26.545 25.1412ZM10.9631 16.5843C10.9631 15.4725 11.2928 14.3857 11.9105 13.4613C12.5281 12.5368 13.4061 11.8163 14.4333 11.3909C15.4604 10.9654 16.5907 10.8541 17.6811 11.071C18.7716 11.2879 19.7732 11.8233 20.5594 12.6094C21.3455 13.3956 21.8809 14.3972 22.0978 15.4877C22.3147 16.5781 22.2034 17.7084 21.7779 18.7355C21.3525 19.7627 20.632 20.6406 19.7075 21.2583C18.7831 21.876 17.6963 22.2057 16.5845 22.2057C15.094 22.2042 13.6651 21.6114 12.6112 20.5576C11.5574 19.5037 10.9646 18.0747 10.9631 16.5843Z" fill="black"/>
</svg>
