<svg width="20" height="20" viewBox="0 0 20 20" fill="none" xmlns="http://www.w3.org/2000/svg">
<path d="M17.6977 4.40702L10.1977 1.90702C10.0694 1.86425 9.93064 1.86425 9.80234 1.90702L2.30234 4.40702C2.17789 4.4485 2.06965 4.5281 1.99296 4.63452C1.91626 4.74094 1.87499 4.8688 1.875 4.99999V11.25C1.875 11.4157 1.94085 11.5747 2.05806 11.6919C2.17527 11.8091 2.33424 11.875 2.5 11.875C2.66576 11.875 2.82473 11.8091 2.94194 11.6919C3.05915 11.5747 3.125 11.4157 3.125 11.25V5.86717L5.74922 6.74139C5.052 7.8678 4.83029 9.22486 5.13276 10.5146C5.43524 11.8043 6.23718 12.9213 7.3625 13.6203C5.95625 14.1719 4.74062 15.1695 3.85156 16.5336C3.80532 16.6023 3.77321 16.6795 3.75708 16.7608C3.74095 16.842 3.74113 16.9257 3.75761 17.0068C3.77409 17.088 3.80654 17.1651 3.85307 17.2336C3.89961 17.3021 3.9593 17.3607 4.02867 17.406C4.09805 17.4512 4.17573 17.4822 4.25719 17.4972C4.33866 17.5122 4.42229 17.5108 4.50322 17.4931C4.58414 17.4755 4.66076 17.4419 4.72861 17.3944C4.79646 17.3469 4.85418 17.2864 4.89844 17.2164C6.07578 15.4101 7.93516 14.375 10 14.375C12.0648 14.375 13.9242 15.4101 15.1016 17.2164C15.1932 17.3526 15.3348 17.4473 15.4958 17.48C15.6567 17.5127 15.824 17.4807 15.9616 17.391C16.0991 17.3013 16.1958 17.161 16.2308 17.0006C16.2657 16.8402 16.2362 16.6724 16.1484 16.5336C15.2594 15.1695 14.0391 14.1719 12.6375 13.6203C13.7617 12.9214 14.5629 11.8051 14.8653 10.5163C15.1678 9.2275 14.9468 7.87138 14.2508 6.7453L17.6977 5.59686C17.8221 5.5554 17.9304 5.47582 18.0071 5.36939C18.0839 5.26296 18.1251 5.13509 18.1251 5.00389C18.1251 4.87269 18.0839 4.74482 18.0071 4.63839C17.9304 4.53197 17.8221 4.45239 17.6977 4.41092V4.40702ZM13.75 9.37499C13.7502 9.96784 13.6098 10.5523 13.3403 11.0804C13.0709 11.6085 12.6801 12.0651 12.1999 12.4129C11.7198 12.7607 11.1641 12.9898 10.5783 13.0812C9.99256 13.1726 9.39347 13.1239 8.83019 12.9389C8.26692 12.754 7.75553 12.4381 7.33796 12.0173C6.9204 11.5964 6.60857 11.0826 6.42805 10.5178C6.24754 9.95314 6.20349 9.35368 6.29952 8.76865C6.39554 8.18363 6.62891 7.6297 6.98047 7.15233L9.80234 8.08983C9.93064 8.1326 10.0694 8.1326 10.1977 8.08983L13.0195 7.15233C13.4944 7.79608 13.7504 8.57506 13.75 9.37499Z" fill="black"/>
</svg>
