<svg width="20" height="20" viewBox="0 0 20 20" fill="none" xmlns="http://www.w3.org/2000/svg">
<path d="M9.35626 17.0249C9.32246 17.1601 9.24444 17.2801 9.1346 17.3659C9.02475 17.4517 8.88938 17.4983 8.75001 17.4983C8.69735 17.4986 8.64487 17.4923 8.59376 17.4796L6.09376 16.8546C6.02416 16.8371 5.95809 16.8078 5.89845 16.7678L4.02345 15.5178C3.88556 15.4258 3.78986 15.2828 3.75741 15.1203C3.72495 14.9577 3.7584 14.7889 3.8504 14.651C3.9424 14.5132 4.08541 14.4175 4.24796 14.385C4.41052 14.3526 4.57931 14.386 4.7172 14.478L6.50157 15.6678L8.89689 16.2671C8.97692 16.2865 9.05233 16.3215 9.11878 16.3701C9.18523 16.4188 9.24141 16.4801 9.2841 16.5505C9.32679 16.6209 9.35514 16.6991 9.36752 16.7805C9.37991 16.8619 9.37608 16.9449 9.35626 17.0249ZM19.7227 9.48894C19.6714 9.64471 19.5898 9.78877 19.4825 9.91281C19.3752 10.0368 19.2444 10.1384 19.0977 10.2116L17.2477 11.1366L16.0695 12.3155L12.9445 15.4405C12.8682 15.5168 12.7733 15.572 12.6693 15.6008C12.5652 15.6295 12.4555 15.6308 12.3508 15.6046L7.35079 14.3546C7.27476 14.3355 7.20295 14.3024 7.13907 14.2569L2.80157 11.16L0.904698 10.2116C0.608242 10.0634 0.382777 9.80353 0.277881 9.48913C0.172984 9.17474 0.197243 8.83155 0.345323 8.53503L2.28673 4.653C2.43493 4.35655 2.6948 4.13108 3.00919 4.02619C3.32359 3.92129 3.66678 3.94555 3.96329 4.09363L5.68673 4.953L9.82736 3.77019C9.93969 3.73806 10.0588 3.73806 10.1711 3.77019L14.3117 4.953L16.0352 4.09363C16.3317 3.94555 16.6749 3.92129 16.9893 4.02619C17.3037 4.13108 17.5635 4.35655 17.7117 4.653L19.6531 8.53503C19.7272 8.68155 19.7715 8.8413 19.7834 9.00503C19.7953 9.16876 19.7747 9.33323 19.7227 9.48894ZM14.6875 11.9249L12.5227 10.1913C10.9961 11.4413 9.05782 11.6061 7.45157 10.5819C7.29357 10.4814 7.16017 10.3467 7.06122 10.1877C6.96228 10.0287 6.90032 9.84953 6.87992 9.66338C6.85952 9.47724 6.8812 9.28889 6.94337 9.11225C7.00553 8.93561 7.10659 8.77519 7.23907 8.64285C7.24096 8.64057 7.24305 8.63848 7.24532 8.6366L10.75 5.23738L10 5.02332L6.06095 6.1491L3.92267 10.4249L7.76642 13.171L12.3086 14.3061L14.6875 11.9249ZM16.1125 10.4999L13.9891 6.24832H11.5031L8.12501 9.52957C9.11407 10.1616 10.6649 10.3358 12.0563 8.93347C12.1649 8.82394 12.3103 8.75847 12.4643 8.74968C12.6184 8.74088 12.7702 8.78937 12.8906 8.88582L15.5789 11.0397L16.1125 10.4999Z" fill="black"/>
</svg>
