<svg width="18" height="19" viewBox="0 0 18 19" fill="none" xmlns="http://www.w3.org/2000/svg">
<g opacity="0.8">
<path d="M16.5085 7.56569C16.4394 7.34829 16.3063 7.15685 16.1265 7.01646C15.9467 6.87607 15.7287 6.79329 15.501 6.77897L11.4018 6.49603L9.88355 2.66595C9.80064 2.45506 9.65634 2.2739 9.46933 2.14595C9.28231 2.01799 9.06119 1.94911 8.83459 1.94824C8.60799 1.94911 8.38687 2.01799 8.19985 2.14595C8.01283 2.2739 7.86853 2.45506 7.78563 2.66595L6.2398 6.51673L2.16819 6.77897C1.9408 6.79422 1.72322 6.87735 1.5436 7.0176C1.36397 7.15786 1.23057 7.34879 1.16064 7.56569C1.08882 7.78592 1.08463 8.02261 1.14859 8.24524C1.21255 8.46788 1.34174 8.66625 1.51949 8.81478L4.65256 11.4648L3.72092 15.1292C3.65646 15.3771 3.66806 15.6387 3.75421 15.8799C3.84036 16.1211 3.99708 16.3309 4.20399 16.4818C4.40483 16.626 4.64412 16.7069 4.89123 16.7143C5.13833 16.7217 5.38202 16.6552 5.5911 16.5232L8.82769 14.4736H8.84149L12.3265 16.6751C12.5053 16.7912 12.7137 16.8535 12.9269 16.8545C13.101 16.8531 13.2724 16.8119 13.4281 16.7339C13.5837 16.6559 13.7194 16.5433 13.8247 16.4046C13.93 16.266 14.0021 16.1051 14.0355 15.9342C14.0689 15.7634 14.0626 15.5871 14.0173 15.4191L13.0304 11.4096L16.1497 8.81478C16.3274 8.66625 16.4566 8.46788 16.5206 8.24524C16.5845 8.02261 16.5804 7.78592 16.5085 7.56569Z" fill="#CBFB62"/>
</g>
</svg>
