<svg width="19" height="19" viewBox="0 0 19 19" fill="none" xmlns="http://www.w3.org/2000/svg">
<path d="M18.545 17.1413L14.6192 13.2138C15.7963 11.6799 16.3458 9.75568 16.1564 7.83148C15.9669 5.90728 15.0526 4.12719 13.5989 2.85231C12.1453 1.57743 10.2611 0.903236 8.32861 0.966481C6.39613 1.02973 4.56007 1.82568 3.19288 3.19288C1.82568 4.56007 1.02973 6.39613 0.966481 8.32861C0.903236 10.2611 1.57743 12.1453 2.85231 13.5989C4.12719 15.0526 5.90727 15.9669 7.83148 16.1564C9.75568 16.3458 11.6799 15.7963 13.2138 14.6192L17.143 18.5492C17.2353 18.6414 17.3448 18.7146 17.4654 18.7646C17.5859 18.8145 17.7152 18.8402 17.8457 18.8402C17.9762 18.8402 18.1054 18.8145 18.2259 18.7646C18.3465 18.7146 18.4561 18.6414 18.5483 18.5492C18.6406 18.4569 18.7138 18.3473 18.7637 18.2268C18.8137 18.1062 18.8394 17.977 18.8394 17.8465C18.8394 17.716 18.8137 17.5868 18.7637 17.4662C18.7138 17.3456 18.6406 17.2361 18.5483 17.1438L18.545 17.1413ZM2.96309 8.58446C2.96309 7.47266 3.29278 6.38582 3.91046 5.4614C4.52815 4.53697 5.40608 3.81646 6.43326 3.39099C7.46043 2.96553 8.59069 2.8542 9.68113 3.07111C10.7716 3.28801 11.7732 3.82339 12.5594 4.60955C13.3455 5.39572 13.8809 6.39735 14.0978 7.48779C14.3147 8.57822 14.2034 9.70849 13.7779 10.7357C13.3525 11.7628 12.632 12.6408 11.7075 13.2585C10.7831 13.8761 9.69626 14.2058 8.58446 14.2058C7.09405 14.2043 5.66512 13.6116 4.61124 12.5577C3.55737 11.5038 2.96462 10.0749 2.96309 8.58446Z" fill="black"/>
</svg>
