<svg width="58" height="26" viewBox="0 0 58 26" fill="none" xmlns="http://www.w3.org/2000/svg">
<path d="M32.975 18.5201L41.2035 8.21476L41.2025 8.00992V5.13647H28.9207V8.49302H36.5399L28.5239 18.5201H28.52V19.5598L28.5181 19.5665L28.52 19.5685V21.9086H41.273V18.5201H32.975Z" fill="#161C20"/>
<path d="M26.9619 10.407H23.4087C23.3612 10.407 23.3228 10.4455 23.3228 10.493V21.8225C23.3228 21.87 23.3612 21.9085 23.4087 21.9085H26.9619C27.0094 21.9085 27.0478 21.87 27.0478 21.8225V10.493C27.0478 10.4455 27.0094 10.407 26.9619 10.407Z" fill="#161C20"/>
<path d="M25.2229 9.00218C26.4424 9.00218 27.4311 8.05743 27.4311 6.89202C27.4311 5.72661 26.4424 4.78186 25.2229 4.78186C24.0033 4.78186 23.0146 5.72661 23.0146 6.89202C23.0146 8.05743 24.0033 9.00218 25.2229 9.00218Z" fill="#161C20"/>
<path d="M57.345 21.8979H53.279C53.2819 17.1559 51.6984 15.8496 49.4236 15.8496H46.7229V21.8979H42.8511V5.12292H50.1304C54.0824 5.12292 56.4045 7.20893 56.4045 10.3713C56.4045 12.1877 56.0028 14.1095 54.1828 14.9249C56.194 15.9075 57.2001 18.0641 57.344 21.8989L57.345 21.8979ZM49.8957 12.6959C51.3083 12.6959 52.2681 12.009 52.2681 10.4988C52.2681 8.98865 51.2881 8.17415 49.8745 8.17415H46.638V12.695H49.8957V12.6959Z" fill="#161C20"/>
<path d="M13.7037 25.794C13.1506 25.794 12.4003 25.6147 11.6902 24.863C10.5178 23.6215 10.1848 21.8809 9.9168 20.4814C9.88043 20.2905 9.84502 20.1045 9.80865 19.9281C9.71391 19.4732 9.62969 19.0163 9.55504 18.5576C9.24688 19.1638 8.94542 19.7344 8.65353 20.2635C6.56435 24.0437 5.4207 24.8919 4.57852 25.2234C4.08661 25.4172 3.57269 25.4499 3.09801 25.3237C2.51518 25.2234 1.99935 24.8899 1.64429 24.3762C1.41556 24.0437 1.25765 23.6456 1.16195 23.1579C1.04424 22.5565 1.03562 21.8982 1.02892 21.317L1.02701 21.1734L0.833691 7.7549C0.819335 6.76986 1.60122 5.96024 2.57834 5.94674C2.58696 5.94674 2.59557 5.94674 2.60418 5.94674C3.56982 5.94674 4.36032 6.72841 4.37372 7.70381L4.55268 20.2288C4.87903 19.7199 5.26854 19.0636 5.72599 18.2192C6.85241 16.1431 8.13386 13.3972 9.33397 10.4854C9.66319 9.68835 10.5121 9.24306 11.3495 9.42811C12.1869 9.61317 12.7716 10.3765 12.7381 11.2392C12.7304 11.4454 12.719 11.6632 12.7075 11.882C12.6903 12.2175 12.673 12.5644 12.6682 12.8536C12.6577 13.5177 12.6702 14.1904 12.7065 14.8535C12.785 16.3022 12.9754 17.7643 13.2731 19.1985C13.3133 19.3922 13.3525 19.5956 13.3927 19.8057C13.498 20.3532 13.6176 20.9787 13.7889 21.5021C13.9258 21.2274 14.0865 20.8669 14.2722 20.3946L14.2875 20.3551C16.036 15.9147 16.9892 11.7471 17.9979 7.33467C18.3903 5.62 18.7951 3.84751 19.2631 1.98346C19.5023 1.0283 20.4651 0.449033 21.4135 0.690955C22.3619 0.931914 22.9361 1.90153 22.6969 2.85669C22.2385 4.68412 21.8375 6.43926 21.4489 8.13561C20.4086 12.683 19.4267 16.9788 17.5797 21.6707L17.5644 21.7093C16.8523 23.5194 15.8944 25.4152 14.1909 25.7478C14.0569 25.7738 13.8913 25.795 13.7028 25.795L13.7037 25.794Z" fill="#161C20"/>
</svg>
